G04 MADE WITH FRITZING*
G04 WWW.FRITZING.ORG*
G04 DOUBLE SIDED*
G04 HOLES PLATED*
G04 CONTOUR ON CENTER OF CONTOUR VECTOR*
%ASAXBY*%
%FSLAX23Y23*%
%MOIN*%
%OFA0B0*%
%SFA1.0B1.0*%
%ADD10C,0.074291*%
%ADD11C,0.078000*%
%ADD12C,0.067195*%
%ADD13C,0.070000*%
%ADD14C,0.039370*%
%ADD15R,0.069972X0.070000*%
%ADD16C,0.024000*%
%LNCOPPER1*%
G90*
G70*
G54D10*
X815Y707D03*
X815Y807D03*
X815Y908D03*
X815Y1008D03*
X815Y1108D03*
X815Y1209D03*
G54D11*
X189Y508D03*
X189Y608D03*
X189Y708D03*
X189Y808D03*
X189Y908D03*
X189Y1008D03*
X189Y1108D03*
X189Y1208D03*
X189Y308D03*
X189Y408D03*
G54D12*
X589Y208D03*
X689Y208D03*
X789Y208D03*
X889Y208D03*
G54D13*
X389Y2908D03*
X389Y2808D03*
X389Y2708D03*
X389Y2608D03*
X389Y2508D03*
X389Y2408D03*
X389Y2308D03*
X389Y2208D03*
X389Y2108D03*
X389Y2008D03*
X389Y1908D03*
X389Y1808D03*
X389Y1708D03*
X389Y1608D03*
X389Y1508D03*
X989Y2908D03*
X989Y2808D03*
X989Y2708D03*
X989Y2608D03*
X989Y2508D03*
X989Y2408D03*
X989Y2308D03*
X989Y2208D03*
X989Y2108D03*
X989Y2008D03*
X989Y1908D03*
X989Y1808D03*
X989Y1708D03*
X989Y1608D03*
X989Y1508D03*
G54D14*
X1290Y2308D03*
X1290Y1908D03*
X1290Y2008D03*
X289Y3008D03*
X1390Y2908D03*
X1390Y2708D03*
X89Y2908D03*
X1290Y3008D03*
X1190Y3008D03*
X89Y2808D03*
X89Y3008D03*
X1190Y108D03*
X1290Y108D03*
X1390Y208D03*
X89Y208D03*
X89Y308D03*
X289Y108D03*
X389Y108D03*
X589Y108D03*
X89Y108D03*
X1290Y1708D03*
X1290Y2208D03*
X1090Y1908D03*
X1090Y1808D03*
X1090Y2008D03*
X1090Y2108D03*
X589Y208D03*
X689Y208D03*
X789Y208D03*
X889Y208D03*
X1090Y2608D03*
X1090Y2808D03*
X1190Y308D03*
G54D11*
X290Y1708D03*
X290Y1808D03*
X290Y1908D03*
X290Y2008D03*
X290Y2108D03*
X290Y2208D03*
X290Y2308D03*
X290Y2408D03*
X1190Y2408D03*
X1190Y2308D03*
X1190Y2208D03*
X1190Y2108D03*
X1190Y2008D03*
X1190Y1908D03*
X1190Y1808D03*
X1190Y1708D03*
X290Y1708D03*
X290Y1808D03*
X290Y1908D03*
X290Y2008D03*
X290Y2108D03*
X290Y2208D03*
X290Y2308D03*
X290Y2408D03*
X1190Y2408D03*
X1190Y2308D03*
X1190Y2208D03*
X1190Y2108D03*
X1190Y2008D03*
X1190Y1908D03*
X1190Y1808D03*
X1190Y1708D03*
G54D15*
X389Y2908D03*
G54D16*
X290Y1207D02*
X220Y1208D01*
D02*
X568Y230D02*
X490Y309D01*
D02*
X490Y309D02*
X290Y1207D01*
D02*
X1388Y1108D02*
X847Y1108D01*
D02*
X1190Y209D02*
X1290Y309D01*
D02*
X1290Y309D02*
X1388Y407D01*
D02*
X1388Y407D02*
X1388Y1108D01*
D02*
X1289Y108D02*
X1190Y209D01*
D02*
X920Y208D02*
X1190Y209D01*
D02*
X1388Y1108D02*
X890Y1107D01*
D02*
X1190Y209D02*
X1289Y108D01*
D02*
X890Y1107D02*
X1388Y1108D01*
D02*
X891Y109D02*
X890Y177D01*
D02*
X589Y107D02*
X891Y109D01*
D02*
X581Y91D02*
X589Y107D01*
D02*
X1271Y1708D02*
X1220Y1708D01*
D02*
X1271Y1908D02*
X1220Y1908D01*
D02*
X1271Y2008D02*
X1220Y2008D01*
D02*
X1388Y2407D02*
X1220Y2408D01*
D02*
X1388Y1607D02*
X1388Y2407D01*
D02*
X1388Y1108D02*
X1388Y1607D01*
D02*
X1388Y1108D02*
X1189Y1108D01*
D02*
X1189Y1108D02*
X1388Y1108D01*
D02*
X847Y1108D02*
X1388Y1108D01*
D02*
X390Y1507D02*
X393Y1479D01*
D02*
X391Y1108D02*
X390Y1309D01*
D02*
X390Y1309D02*
X390Y1507D01*
D02*
X490Y808D02*
X490Y809D01*
D02*
X490Y809D02*
X391Y1108D01*
D02*
X810Y231D02*
X790Y209D01*
D02*
X391Y1108D02*
X391Y1108D01*
D02*
X790Y209D02*
X490Y808D01*
D02*
X821Y1239D02*
X889Y1609D01*
D02*
X889Y1609D02*
X960Y1608D01*
D02*
X391Y3009D02*
X308Y3008D01*
D02*
X961Y2913D02*
X391Y3009D01*
D02*
X390Y1807D02*
X591Y1807D01*
D02*
X591Y1807D02*
X591Y2608D01*
D02*
X591Y2608D02*
X388Y2607D01*
D02*
X388Y2607D02*
X367Y2589D01*
D02*
X320Y1808D02*
X390Y1807D01*
D02*
X371Y108D02*
X308Y108D01*
D02*
X1190Y209D02*
X1276Y122D01*
D02*
X920Y208D02*
X1190Y209D01*
D02*
X288Y208D02*
X106Y117D01*
D02*
X389Y207D02*
X288Y208D01*
D02*
X572Y116D02*
X389Y207D01*
D02*
X1289Y2807D02*
X1376Y2895D01*
D02*
X1290Y2708D02*
X1289Y2807D01*
D02*
X1390Y2608D02*
X1290Y2708D01*
D02*
X1388Y2407D02*
X1390Y1607D01*
D02*
X1390Y1607D02*
X1390Y2608D01*
D02*
X1220Y2408D02*
X1388Y2407D01*
D02*
X290Y2708D02*
X190Y2907D01*
D02*
X369Y2629D02*
X290Y2708D01*
D02*
X190Y2907D02*
X103Y2995D01*
D02*
X820Y208D02*
X859Y208D01*
D02*
X690Y1208D02*
X589Y1309D01*
D02*
X790Y1108D02*
X690Y1208D01*
D02*
X590Y1507D02*
X590Y2609D01*
D02*
X590Y2609D02*
X419Y2608D01*
D02*
X784Y1108D02*
X790Y1108D01*
D02*
X589Y1309D02*
X590Y1507D01*
D02*
X1271Y2208D02*
X1220Y2208D01*
D02*
X1271Y2308D02*
X1220Y2308D01*
D02*
X1071Y1808D02*
X1019Y1808D01*
D02*
X1071Y1908D02*
X1019Y1908D01*
D02*
X1071Y2008D02*
X1019Y2008D01*
D02*
X1071Y2108D02*
X1019Y2108D01*
D02*
X490Y307D02*
X391Y307D01*
D02*
X568Y230D02*
X490Y307D01*
D02*
X391Y307D02*
X108Y214D01*
D02*
X1090Y2608D02*
X1281Y2991D01*
D02*
X1019Y2608D02*
X1090Y2608D01*
D02*
X1071Y2808D02*
X1019Y2808D01*
D02*
X490Y1108D02*
X489Y1207D01*
D02*
X492Y1104D02*
X490Y1108D01*
D02*
X789Y507D02*
X589Y807D01*
D02*
X589Y807D02*
X492Y1104D01*
D02*
X1172Y316D02*
X789Y507D01*
D02*
X489Y1207D02*
X490Y1507D01*
D02*
X490Y1707D02*
X419Y1708D01*
D02*
X490Y1507D02*
X490Y1707D01*
D02*
X190Y1709D02*
X259Y1708D01*
D02*
X190Y1238D02*
X190Y1709D01*
D02*
X89Y2789D02*
X89Y1708D01*
D02*
X89Y1708D02*
X190Y1709D01*
D02*
X190Y1709D02*
X259Y1708D01*
G04 End of Copper1*
M02*