G04 MADE WITH FRITZING*
G04 WWW.FRITZING.ORG*
G04 DOUBLE SIDED*
G04 HOLES PLATED*
G04 CONTOUR ON CENTER OF CONTOUR VECTOR*
%ASAXBY*%
%FSLAX23Y23*%
%MOIN*%
%OFA0B0*%
%SFA1.0B1.0*%
%ADD10C,0.080000*%
%ADD11C,0.088000*%
%ADD12C,0.084291*%
%ADD13C,0.049370*%
%ADD14C,0.128110*%
%ADD15R,0.079972X0.080000*%
%LNMASK0*%
G90*
G70*
G54D10*
X389Y2908D03*
X389Y2808D03*
X389Y2708D03*
X389Y2608D03*
X389Y2508D03*
X389Y2408D03*
X389Y2308D03*
X389Y2208D03*
X389Y2108D03*
X389Y2008D03*
X389Y1908D03*
X389Y1808D03*
X389Y1708D03*
X389Y1608D03*
X389Y1508D03*
X989Y2908D03*
X989Y2808D03*
X989Y2708D03*
X989Y2608D03*
X989Y2508D03*
X989Y2408D03*
X989Y2308D03*
X989Y2208D03*
X989Y2108D03*
X989Y2008D03*
X989Y1908D03*
X989Y1808D03*
X989Y1708D03*
X989Y1608D03*
X989Y1508D03*
G54D11*
X189Y508D03*
X189Y608D03*
X189Y708D03*
X189Y808D03*
X189Y908D03*
X189Y1008D03*
X189Y1108D03*
X189Y1208D03*
X189Y308D03*
X189Y408D03*
G54D12*
X815Y707D03*
X815Y807D03*
X815Y908D03*
X815Y1008D03*
X815Y1108D03*
X815Y1209D03*
G54D11*
X290Y1708D03*
X290Y1808D03*
X290Y1908D03*
X290Y2008D03*
X290Y2108D03*
X290Y2208D03*
X290Y2308D03*
X290Y2408D03*
X1190Y2408D03*
X1190Y2308D03*
X1190Y2208D03*
X1190Y2108D03*
X1190Y2008D03*
X1190Y1908D03*
X1190Y1808D03*
X1190Y1708D03*
X290Y1708D03*
X290Y1808D03*
X290Y1908D03*
X290Y2008D03*
X290Y2108D03*
X290Y2208D03*
X290Y2308D03*
X290Y2408D03*
X1190Y2408D03*
X1190Y2308D03*
X1190Y2208D03*
X1190Y2108D03*
X1190Y2008D03*
X1190Y1908D03*
X1190Y1808D03*
X1190Y1708D03*
G54D13*
X1290Y2308D03*
X1290Y1908D03*
X1290Y2008D03*
X1290Y1708D03*
X1290Y2208D03*
X289Y3008D03*
X1390Y2908D03*
X1390Y2708D03*
X89Y3008D03*
X89Y2808D03*
X1190Y3008D03*
X1290Y3008D03*
X89Y2908D03*
X1090Y1908D03*
X1090Y1808D03*
X1090Y2608D03*
X1090Y2808D03*
X1090Y2108D03*
X1090Y2008D03*
X689Y208D03*
X589Y208D03*
X89Y108D03*
X889Y208D03*
X589Y108D03*
X1190Y308D03*
X789Y208D03*
X289Y108D03*
X1190Y108D03*
X1290Y108D03*
X1390Y208D03*
X89Y308D03*
X389Y108D03*
X89Y208D03*
G54D14*
X1159Y1451D03*
G54D15*
X389Y2908D03*
G04 End of Mask0*
M02*