G04*
G04 GERBER (RE)GENERATED BY FLATCAM v8.994 - www.flatcam.org - Version Date: 2020/11/7*
G04 Filename: cablabe drone_copperBottom.gbl_edit*
G04 Created on : Sunday, 23 May 2021 at 01:13*
G04*
G04 RS-274X GERBER GENERATED BY FLATCAM v8.994 - www.flatcam.org - Version Date: 2020/11/7*
G04 Filename: cablabe drone_copperBottom.gbl_edit*
G04 Created on : Sunday, 23 May 2021 at 01:12*
%FSLAX24Y24*%
%MOIN*%
%ADD10C,0.077999844*%
%ADD11C,0.03936992126*%
%ADD12C,0.06999986000000001*%
%ADD13C,0.074290851418*%
%ADD14R,0.06997186005600001X0.06999986000000001*%
%ADD15C,0.023999952*%

G70*
G90*
G01*
%LPD*%
D10*
X02900Y17080D03*
X02900Y18080D03*
X02900Y19080D03*
X02900Y20080D03*
X02900Y21080D03*
X02900Y22080D03*
X02900Y23080D03*
X02900Y24080D03*
X11900Y24080D03*
X11900Y23080D03*
X11900Y22080D03*
X11900Y21080D03*
X11900Y20080D03*
X11900Y19080D03*
X11900Y18080D03*
X11900Y17080D03*
X02900Y17080D03*
X02900Y18080D03*
X02900Y19080D03*
X02900Y20080D03*
X02900Y21080D03*
X02900Y22080D03*
X02900Y23080D03*
X02900Y24080D03*
X11900Y24080D03*
X11900Y23080D03*
X11900Y22080D03*
X11900Y21080D03*
X11900Y20080D03*
X11900Y19080D03*
X11900Y18080D03*
X11900Y17080D03*
X01900Y05080D03*
X01900Y06080D03*
X01900Y07080D03*
X01890Y08080D03*
X01900Y09080D03*
X01900Y10080D03*
X01900Y11080D03*
X01900Y12080D03*
X01900Y03080D03*
X01900Y04080D03*
D11*
X12900Y23080D03*
X12900Y19080D03*
X12900Y22080D03*
X12900Y17080D03*
X12900Y20080D03*
X02890Y30080D03*
X13900Y29080D03*
X10900Y28080D03*
X10900Y26080D03*
X11900Y25080D03*
X11900Y27080D03*
X11900Y26080D03*
X10900Y21080D03*
X10900Y20080D03*
X10900Y18080D03*
X10900Y19080D03*
X00890Y30080D03*
X00890Y28080D03*
X11900Y30080D03*
X12900Y30080D03*
X00890Y29080D03*
X13900Y27080D03*
X11900Y03080D03*
X08890Y02080D03*
X07890Y02080D03*
X06890Y02080D03*
X05890Y02080D03*
X00900Y01080D03*
X05890Y01080D03*
X03900Y01080D03*
X02890Y01080D03*
X00890Y03080D03*
X00890Y02080D03*
X13900Y02080D03*
X12900Y01080D03*
X11900Y01080D03*
X06890Y13080D03*
X04890Y13080D03*
X05890Y13080D03*
X13900Y11080D03*
X13900Y10080D03*
X13900Y09080D03*
D12*
X03900Y29080D03*
X03900Y28080D03*
X03900Y27080D03*
X03900Y26080D03*
X03900Y25080D03*
X03900Y24080D03*
X03900Y23080D03*
X03900Y22080D03*
X03900Y21080D03*
X03900Y20080D03*
X03900Y19080D03*
X03900Y18080D03*
X03900Y17080D03*
X03900Y16080D03*
X03900Y15080D03*
X09900Y29080D03*
X09900Y28080D03*
X09900Y27080D03*
X09900Y26080D03*
X09900Y25080D03*
X09900Y24080D03*
X09900Y23080D03*
X09900Y22080D03*
X09900Y21080D03*
X09900Y20080D03*
X09900Y19080D03*
X09900Y18080D03*
X09900Y17080D03*
X09900Y16080D03*
X09900Y15080D03*
D13*
X08150Y07070D03*
X08150Y08070D03*
X08150Y09080D03*
X08150Y10080D03*
X08150Y11080D03*
X08150Y12090D03*
D14*
X03890Y29080D03*
D15*
X08900Y10070D02*
X08470Y10080D01*
X07890Y14080D02*
X08890Y13080D01*
X08890Y13080D02*
X08900Y10070D01*
X07890Y23080D02*
X07890Y14080D01*
X09600Y23080D02*
X07890Y23080D01*
X06900Y09070D02*
X07840Y09080D01*
X05890Y09070D02*
X06900Y09070D01*
X02200Y09080D02*
X05890Y09070D01*
X09890Y13080D02*
X08890Y14080D01*
X08890Y14080D02*
X08890Y22080D01*
X08890Y22080D02*
X09600Y22080D01*
X09900Y09090D02*
X09890Y13080D01*
X08470Y09080D02*
X09900Y09090D01*
X06900Y11080D02*
X07840Y11080D01*
X05890Y11080D02*
X06900Y11080D01*
X02200Y11080D02*
X05890Y11080D01*
X10900Y29070D02*
X10190Y29080D01*
X13880Y27080D02*
X10900Y29070D01*
X13880Y05070D02*
X13890Y02070D01*
X13900Y06090D02*
X13890Y16090D01*
X13900Y02090D02*
X13900Y06090D01*
X13900Y02090D03*
X03910Y01080D02*
X05890Y05080D01*
X07900Y05080D02*
X13880Y05070D01*
X13890Y16090D02*
X13880Y27080D01*
X05890Y05080D02*
X07900Y05080D01*
X13890Y02070D02*
X13900Y02090D01*
X02890Y01080D02*
X03910Y01080D01*
X02850Y01060D02*
X02890Y01080D01*
X05890Y10080D02*
X02200Y10080D01*
X06900Y10080D02*
X05890Y10080D01*
X07840Y10080D02*
X06900Y10080D01*
X03900Y13090D02*
X04900Y14080D01*
X00900Y13090D02*
X03900Y13090D01*
X04900Y14080D02*
X04900Y15070D01*
X00900Y03270D02*
X00900Y13090D01*
X04900Y15070D02*
X04100Y15870D01*
X06900Y01070D02*
X11710Y01080D01*
X06030Y01950D02*
X06900Y01070D01*
X04890Y12070D02*
X02880Y12070D01*
X06900Y14080D02*
X07900Y13080D01*
X06900Y24070D02*
X06900Y14080D01*
X07900Y13080D02*
X06900Y12080D01*
X06900Y12080D02*
X04890Y12070D01*
X09650Y25920D02*
X06900Y24070D01*
X02880Y12070D02*
X02200Y12080D01*
X01910Y28070D02*
X02900Y25080D01*
X02900Y25080D02*
X03690Y24290D01*
X01030Y28950D02*
X01910Y28070D01*
X04900Y23080D02*
X08900Y29080D01*
X04100Y22290D02*
X04900Y23080D01*
X08900Y29080D02*
X09890Y30070D01*
X09890Y30070D02*
X11710Y30080D01*
M02*
