G04 MADE WITH FRITZING*
G04 WWW.FRITZING.ORG*
G04 DOUBLE SIDED*
G04 HOLES PLATED*
G04 CONTOUR ON CENTER OF CONTOUR VECTOR*
%ASAXBY*%
%FSLAX23Y23*%
%MOIN*%
%OFA0B0*%
%SFA1.0B1.0*%
%ADD10C,0.084000*%
%ADD11C,0.088000*%
%ADD12C,0.085667*%
%ADD13C,0.085695*%
%ADD14C,0.049370*%
%ADD15R,0.088000X0.088000*%
%ADD16R,0.085667X0.085667*%
%ADD17R,0.084000X0.084000*%
%ADD18R,0.001000X0.001000*%
%LNMASK1*%
G90*
G70*
G54D10*
X2311Y1621D03*
X2411Y1621D03*
X2511Y1621D03*
X2611Y1621D03*
X2711Y1621D03*
X2811Y1621D03*
X2261Y1521D03*
X2261Y1421D03*
X2261Y1321D03*
X2261Y1221D03*
X2261Y1121D03*
X2376Y1176D03*
X2376Y1076D03*
X2261Y1021D03*
X2261Y921D03*
X2261Y821D03*
X2261Y721D03*
X2261Y621D03*
X2261Y521D03*
X2261Y421D03*
X2861Y421D03*
X2861Y521D03*
X2861Y621D03*
X2861Y721D03*
X2861Y821D03*
X2861Y921D03*
X2861Y1021D03*
X2861Y1121D03*
X2861Y1221D03*
X2861Y1321D03*
X2861Y1421D03*
X2861Y1521D03*
X2311Y1621D03*
X2411Y1621D03*
X2511Y1621D03*
X2611Y1621D03*
X2711Y1621D03*
X2811Y1621D03*
X2261Y1521D03*
X2261Y1421D03*
X2261Y1321D03*
X2261Y1221D03*
X2261Y1121D03*
X2376Y1176D03*
X2376Y1076D03*
X2261Y1021D03*
X2261Y921D03*
X2261Y821D03*
X2261Y721D03*
X2261Y621D03*
X2261Y521D03*
X2261Y421D03*
X2861Y421D03*
X2861Y521D03*
X2861Y621D03*
X2861Y721D03*
X2861Y821D03*
X2861Y921D03*
X2861Y1021D03*
X2861Y1121D03*
X2861Y1221D03*
X2861Y1321D03*
X2861Y1421D03*
X2861Y1521D03*
G54D11*
X161Y521D03*
X161Y621D03*
X161Y721D03*
X161Y821D03*
X161Y921D03*
X161Y1021D03*
X161Y1121D03*
G54D10*
X361Y1421D03*
X361Y1521D03*
X361Y1621D03*
X361Y1421D03*
X361Y1521D03*
X361Y1621D03*
X3161Y1521D03*
X3161Y1621D03*
X3161Y1721D03*
X3161Y1521D03*
X3161Y1621D03*
X3161Y1721D03*
G54D11*
X3461Y421D03*
X3461Y321D03*
X3461Y221D03*
G54D12*
X1961Y721D03*
X1662Y721D03*
G54D13*
X1961Y821D03*
X1661Y821D03*
G54D12*
X1661Y1221D03*
X1960Y1221D03*
G54D13*
X1661Y1121D03*
X1961Y1121D03*
G54D14*
X1561Y1221D03*
X1361Y1521D03*
X561Y1321D03*
X1861Y1422D03*
X1361Y1421D03*
X1361Y1221D03*
X761Y321D03*
X1261Y321D03*
X661Y321D03*
X561Y1721D03*
X1361Y421D03*
X561Y1621D03*
G54D10*
X711Y1621D03*
X811Y1621D03*
X911Y1621D03*
X1011Y1621D03*
X1111Y1621D03*
X1211Y1621D03*
X661Y1521D03*
X661Y1421D03*
X661Y1321D03*
X661Y1221D03*
X661Y1121D03*
X776Y1176D03*
X776Y1076D03*
X661Y1021D03*
X661Y921D03*
X661Y821D03*
X661Y721D03*
X661Y621D03*
X661Y521D03*
X661Y421D03*
X1261Y421D03*
X1261Y521D03*
X1261Y621D03*
X1261Y721D03*
X1261Y821D03*
X1261Y921D03*
X1261Y1021D03*
X1261Y1121D03*
X1261Y1221D03*
X1261Y1321D03*
X1261Y1421D03*
X1261Y1521D03*
X711Y1621D03*
X811Y1621D03*
X911Y1621D03*
X1011Y1621D03*
X1111Y1621D03*
X1211Y1621D03*
X661Y1521D03*
X661Y1421D03*
X661Y1321D03*
X661Y1221D03*
X661Y1121D03*
X776Y1176D03*
X776Y1076D03*
X661Y1021D03*
X661Y921D03*
X661Y821D03*
X661Y721D03*
X661Y621D03*
X661Y521D03*
X661Y421D03*
X1261Y421D03*
X1261Y521D03*
X1261Y621D03*
X1261Y721D03*
X1261Y821D03*
X1261Y921D03*
X1261Y1021D03*
X1261Y1121D03*
X1261Y1221D03*
X1261Y1321D03*
X1261Y1421D03*
X1261Y1521D03*
G54D14*
X2161Y1321D03*
X3061Y321D03*
X2961Y321D03*
X2761Y321D03*
X3061Y621D03*
X2661Y321D03*
X2561Y321D03*
X3061Y521D03*
X3061Y421D03*
X2661Y421D03*
X2761Y421D03*
X3761Y1321D03*
X3761Y721D03*
X3761Y1121D03*
X3761Y1021D03*
X3761Y921D03*
X3761Y621D03*
X3761Y1221D03*
X3761Y821D03*
X2161Y1421D03*
X2061Y1021D03*
X1861Y1021D03*
X1361Y921D03*
G54D10*
X3361Y721D03*
X3361Y821D03*
X3361Y921D03*
X3361Y1021D03*
X3361Y1121D03*
X3361Y1221D03*
X3361Y1321D03*
X3361Y721D03*
X3361Y821D03*
X3361Y921D03*
X3361Y1021D03*
X3361Y1121D03*
X3361Y1221D03*
X3361Y1321D03*
G54D14*
X1461Y321D03*
X1461Y421D03*
X2061Y1621D03*
X1461Y1621D03*
X1361Y1621D03*
X1961Y1721D03*
X2061Y1721D03*
X1661Y1621D03*
X1861Y1621D03*
X2961Y1621D03*
X2961Y1521D03*
X2961Y1821D03*
G54D15*
X3461Y421D03*
G54D16*
X1961Y721D03*
X1661Y1221D03*
G54D17*
X3361Y621D03*
X3361Y621D03*
G54D18*
X3119Y1563D02*
X3202Y1563D01*
X3119Y1562D02*
X3202Y1562D01*
X3119Y1561D02*
X3202Y1561D01*
X3119Y1560D02*
X3202Y1560D01*
X3119Y1559D02*
X3202Y1559D01*
X3119Y1558D02*
X3202Y1558D01*
X3119Y1557D02*
X3202Y1557D01*
X3119Y1556D02*
X3202Y1556D01*
X3119Y1555D02*
X3202Y1555D01*
X3119Y1554D02*
X3202Y1554D01*
X3119Y1553D02*
X3202Y1553D01*
X3119Y1552D02*
X3202Y1552D01*
X3119Y1551D02*
X3202Y1551D01*
X3119Y1550D02*
X3202Y1550D01*
X3119Y1549D02*
X3202Y1549D01*
X3119Y1548D02*
X3202Y1548D01*
X3119Y1547D02*
X3202Y1547D01*
X3119Y1546D02*
X3202Y1546D01*
X3119Y1545D02*
X3202Y1545D01*
X3119Y1544D02*
X3202Y1544D01*
X3119Y1543D02*
X3202Y1543D01*
X3119Y1542D02*
X3202Y1542D01*
X3119Y1541D02*
X3202Y1541D01*
X3119Y1540D02*
X3202Y1540D01*
X3119Y1539D02*
X3202Y1539D01*
X3119Y1538D02*
X3202Y1538D01*
X3119Y1537D02*
X3202Y1537D01*
X3119Y1536D02*
X3157Y1536D01*
X3165Y1536D02*
X3202Y1536D01*
X3119Y1535D02*
X3154Y1535D01*
X3168Y1535D02*
X3202Y1535D01*
X3119Y1534D02*
X3152Y1534D01*
X3169Y1534D02*
X3202Y1534D01*
X3119Y1533D02*
X3151Y1533D01*
X3171Y1533D02*
X3202Y1533D01*
X3119Y1532D02*
X3150Y1532D01*
X3172Y1532D02*
X3202Y1532D01*
X3119Y1531D02*
X3149Y1531D01*
X3173Y1531D02*
X3202Y1531D01*
X3119Y1530D02*
X3148Y1530D01*
X3173Y1530D02*
X3202Y1530D01*
X3119Y1529D02*
X3148Y1529D01*
X3174Y1529D02*
X3202Y1529D01*
X3119Y1528D02*
X3147Y1528D01*
X3175Y1528D02*
X3202Y1528D01*
X3119Y1527D02*
X3147Y1527D01*
X3175Y1527D02*
X3202Y1527D01*
X3119Y1526D02*
X3146Y1526D01*
X3175Y1526D02*
X3202Y1526D01*
X3119Y1525D02*
X3146Y1525D01*
X3176Y1525D02*
X3202Y1525D01*
X3119Y1524D02*
X3146Y1524D01*
X3176Y1524D02*
X3202Y1524D01*
X3119Y1523D02*
X3146Y1523D01*
X3176Y1523D02*
X3202Y1523D01*
X3119Y1522D02*
X3146Y1522D01*
X3176Y1522D02*
X3202Y1522D01*
X3119Y1521D02*
X3146Y1521D01*
X3176Y1521D02*
X3202Y1521D01*
X3119Y1520D02*
X3146Y1520D01*
X3176Y1520D02*
X3202Y1520D01*
X3119Y1519D02*
X3146Y1519D01*
X3176Y1519D02*
X3202Y1519D01*
X3119Y1518D02*
X3146Y1518D01*
X3176Y1518D02*
X3202Y1518D01*
X3119Y1517D02*
X3146Y1517D01*
X3175Y1517D02*
X3202Y1517D01*
X3119Y1516D02*
X3147Y1516D01*
X3175Y1516D02*
X3202Y1516D01*
X3119Y1515D02*
X3147Y1515D01*
X3174Y1515D02*
X3202Y1515D01*
X3119Y1514D02*
X3148Y1514D01*
X3174Y1514D02*
X3202Y1514D01*
X3119Y1513D02*
X3149Y1513D01*
X3173Y1513D02*
X3202Y1513D01*
X3119Y1512D02*
X3149Y1512D01*
X3172Y1512D02*
X3202Y1512D01*
X3119Y1511D02*
X3150Y1511D01*
X3171Y1511D02*
X3202Y1511D01*
X3119Y1510D02*
X3152Y1510D01*
X3170Y1510D02*
X3202Y1510D01*
X3119Y1509D02*
X3153Y1509D01*
X3169Y1509D02*
X3202Y1509D01*
X3119Y1508D02*
X3155Y1508D01*
X3167Y1508D02*
X3202Y1508D01*
X3119Y1507D02*
X3202Y1507D01*
X3119Y1506D02*
X3202Y1506D01*
X3119Y1505D02*
X3202Y1505D01*
X3119Y1504D02*
X3202Y1504D01*
X3119Y1503D02*
X3202Y1503D01*
X3119Y1502D02*
X3202Y1502D01*
X3119Y1501D02*
X3202Y1501D01*
X3119Y1500D02*
X3202Y1500D01*
X3119Y1499D02*
X3202Y1499D01*
X3119Y1498D02*
X3202Y1498D01*
X3119Y1497D02*
X3202Y1497D01*
X3119Y1496D02*
X3202Y1496D01*
X3119Y1495D02*
X3202Y1495D01*
X3119Y1494D02*
X3202Y1494D01*
X3119Y1493D02*
X3202Y1493D01*
X3119Y1492D02*
X3202Y1492D01*
X3119Y1491D02*
X3202Y1491D01*
X3119Y1490D02*
X3202Y1490D01*
X3119Y1489D02*
X3202Y1489D01*
X3119Y1488D02*
X3202Y1488D01*
X3119Y1487D02*
X3202Y1487D01*
X3119Y1486D02*
X3202Y1486D01*
X3119Y1485D02*
X3202Y1485D01*
X3119Y1484D02*
X3202Y1484D01*
X3119Y1483D02*
X3202Y1483D01*
X3119Y1482D02*
X3202Y1482D01*
X3119Y1481D02*
X3202Y1481D01*
X3120Y1480D02*
X3202Y1480D01*
X319Y1463D02*
X402Y1463D01*
X319Y1462D02*
X402Y1462D01*
X319Y1461D02*
X402Y1461D01*
X319Y1460D02*
X402Y1460D01*
X319Y1459D02*
X402Y1459D01*
X319Y1458D02*
X402Y1458D01*
X319Y1457D02*
X402Y1457D01*
X319Y1456D02*
X402Y1456D01*
X319Y1455D02*
X402Y1455D01*
X319Y1454D02*
X402Y1454D01*
X319Y1453D02*
X402Y1453D01*
X319Y1452D02*
X402Y1452D01*
X319Y1451D02*
X402Y1451D01*
X319Y1450D02*
X402Y1450D01*
X319Y1449D02*
X402Y1449D01*
X319Y1448D02*
X402Y1448D01*
X319Y1447D02*
X402Y1447D01*
X319Y1446D02*
X402Y1446D01*
X319Y1445D02*
X402Y1445D01*
X319Y1444D02*
X402Y1444D01*
X319Y1443D02*
X402Y1443D01*
X319Y1442D02*
X402Y1442D01*
X319Y1441D02*
X402Y1441D01*
X319Y1440D02*
X402Y1440D01*
X319Y1439D02*
X402Y1439D01*
X319Y1438D02*
X402Y1438D01*
X319Y1437D02*
X402Y1437D01*
X319Y1436D02*
X357Y1436D01*
X365Y1436D02*
X402Y1436D01*
X319Y1435D02*
X354Y1435D01*
X368Y1435D02*
X402Y1435D01*
X319Y1434D02*
X352Y1434D01*
X370Y1434D02*
X402Y1434D01*
X319Y1433D02*
X351Y1433D01*
X371Y1433D02*
X402Y1433D01*
X319Y1432D02*
X350Y1432D01*
X372Y1432D02*
X402Y1432D01*
X319Y1431D02*
X349Y1431D01*
X373Y1431D02*
X402Y1431D01*
X319Y1430D02*
X348Y1430D01*
X374Y1430D02*
X402Y1430D01*
X319Y1429D02*
X348Y1429D01*
X374Y1429D02*
X402Y1429D01*
X319Y1428D02*
X347Y1428D01*
X375Y1428D02*
X402Y1428D01*
X319Y1427D02*
X347Y1427D01*
X375Y1427D02*
X402Y1427D01*
X319Y1426D02*
X346Y1426D01*
X375Y1426D02*
X402Y1426D01*
X319Y1425D02*
X346Y1425D01*
X376Y1425D02*
X402Y1425D01*
X319Y1424D02*
X346Y1424D01*
X376Y1424D02*
X402Y1424D01*
X319Y1423D02*
X346Y1423D01*
X376Y1423D02*
X402Y1423D01*
X319Y1422D02*
X346Y1422D01*
X376Y1422D02*
X402Y1422D01*
X319Y1421D02*
X346Y1421D01*
X376Y1421D02*
X402Y1421D01*
X319Y1420D02*
X346Y1420D01*
X376Y1420D02*
X402Y1420D01*
X319Y1419D02*
X346Y1419D01*
X376Y1419D02*
X402Y1419D01*
X319Y1418D02*
X346Y1418D01*
X376Y1418D02*
X402Y1418D01*
X319Y1417D02*
X346Y1417D01*
X375Y1417D02*
X402Y1417D01*
X319Y1416D02*
X347Y1416D01*
X375Y1416D02*
X402Y1416D01*
X319Y1415D02*
X347Y1415D01*
X374Y1415D02*
X402Y1415D01*
X319Y1414D02*
X348Y1414D01*
X374Y1414D02*
X402Y1414D01*
X319Y1413D02*
X349Y1413D01*
X373Y1413D02*
X402Y1413D01*
X319Y1412D02*
X349Y1412D01*
X372Y1412D02*
X402Y1412D01*
X319Y1411D02*
X350Y1411D01*
X371Y1411D02*
X402Y1411D01*
X319Y1410D02*
X352Y1410D01*
X370Y1410D02*
X402Y1410D01*
X319Y1409D02*
X353Y1409D01*
X369Y1409D02*
X402Y1409D01*
X319Y1408D02*
X355Y1408D01*
X366Y1408D02*
X402Y1408D01*
X319Y1407D02*
X402Y1407D01*
X319Y1406D02*
X402Y1406D01*
X319Y1405D02*
X402Y1405D01*
X319Y1404D02*
X402Y1404D01*
X319Y1403D02*
X402Y1403D01*
X319Y1402D02*
X402Y1402D01*
X319Y1401D02*
X402Y1401D01*
X319Y1400D02*
X402Y1400D01*
X319Y1399D02*
X402Y1399D01*
X319Y1398D02*
X402Y1398D01*
X319Y1397D02*
X402Y1397D01*
X319Y1396D02*
X402Y1396D01*
X319Y1395D02*
X402Y1395D01*
X319Y1394D02*
X402Y1394D01*
X319Y1393D02*
X402Y1393D01*
X319Y1392D02*
X402Y1392D01*
X319Y1391D02*
X402Y1391D01*
X319Y1390D02*
X402Y1390D01*
X319Y1389D02*
X402Y1389D01*
X319Y1388D02*
X402Y1388D01*
X319Y1387D02*
X402Y1387D01*
X319Y1386D02*
X402Y1386D01*
X319Y1385D02*
X402Y1385D01*
X319Y1384D02*
X402Y1384D01*
X319Y1383D02*
X402Y1383D01*
X319Y1382D02*
X402Y1382D01*
X319Y1381D02*
X402Y1381D01*
X320Y1380D02*
X402Y1380D01*
D02*
G04 End of Mask1*
M02*