G04*
G04 GERBER (RE)GENERATED BY FLATCAM v8.994 - www.flatcam.org - Version Date: 2020/11/7*
G04 Filename: PCB_PCB1_854475050_copperBottom.gbl_edit_4*
G04 Created on : Tuesday, 23 March 2021 at 19:09*
G04*
G04 RS-274X GERBER GENERATED BY FLATCAM v8.994 - www.flatcam.org - Version Date: 2020/11/7*
G04 Filename: PCB_PCB1_854475050_copperBottom.gbl_edit_4*
G04 Created on : Tuesday, 23 March 2021 at 19:09*
%FSLAX24Y24*%
%MOIN*%
%ADD10C,0.07399985199999999*%
%ADD11C,0.077999844*%
%ADD12C,0.075666848666*%
%ADD13C,0.07569484861*%
%ADD14C,0.03936992126*%
%ADD15R,0.077999844X0.077999844*%
%ADD16R,0.075666848666X0.075666848666*%
%ADD17R,0.07399985199999999X0.07399985199999999*%
%ADD18C,0.023999952*%
%ADD19R,0.000999998X0.000999998*%
%ADD22C,0.07874*%

G70*
G90*
G01*
%LPD*%
D10*
X22610Y15210D03*
X22610Y14210D03*
X22610Y13210D03*
X22610Y12210D03*
X22610Y11210D03*
X22610Y10210D03*
X22610Y09210D03*
X22610Y08210D03*
X22610Y07210D03*
X22610Y06210D03*
X22610Y05210D03*
X22610Y04210D03*
X28610Y04210D03*
X28610Y05210D03*
X28610Y06210D03*
X28610Y07210D03*
X28610Y08210D03*
X28610Y09210D03*
X28610Y10210D03*
X28610Y11210D03*
X28610Y12210D03*
X28610Y13210D03*
X28610Y14210D03*
X28610Y15210D03*
X22610Y15210D03*
X22610Y14210D03*
X22610Y13210D03*
X22610Y12210D03*
X22610Y11210D03*
X22610Y10210D03*
X22610Y09210D03*
X22610Y08210D03*
X22610Y07210D03*
X22610Y06210D03*
X22610Y05210D03*
X22610Y04210D03*
X28610Y04210D03*
X28610Y05210D03*
X28610Y06210D03*
X28610Y07210D03*
X28610Y08210D03*
X28610Y09210D03*
X28610Y10210D03*
X28610Y11210D03*
X28610Y12210D03*
X28610Y13210D03*
X28610Y14210D03*
X28610Y15210D03*
X03610Y14210D03*
X03610Y15210D03*
X03610Y16210D03*
X31610Y15210D03*
X31610Y16210D03*
X31610Y17210D03*
X06610Y15210D03*
X06610Y14210D03*
X06610Y13210D03*
X06610Y12210D03*
X06610Y11210D03*
X06610Y10210D03*
X06610Y09210D03*
X06610Y08210D03*
X06610Y07210D03*
X06610Y06210D03*
X06610Y05210D03*
X06610Y04210D03*
X12610Y04210D03*
X12610Y05210D03*
X12610Y06210D03*
X12610Y07210D03*
X12610Y08210D03*
X12610Y09210D03*
X12610Y10210D03*
X12610Y11210D03*
X12610Y12210D03*
X12610Y13210D03*
X12610Y14210D03*
X12610Y15210D03*
X06610Y15210D03*
X06610Y14210D03*
X06610Y13210D03*
X06610Y12210D03*
X06610Y11210D03*
X06610Y10210D03*
X06610Y09210D03*
X06610Y08210D03*
X06610Y07210D03*
X06610Y06210D03*
X06610Y05210D03*
X06610Y04210D03*
X12610Y04210D03*
X12610Y05210D03*
X12610Y06210D03*
X12610Y07210D03*
X12610Y08210D03*
X12610Y09210D03*
X12610Y10210D03*
X12610Y11210D03*
X12610Y12210D03*
X12610Y13210D03*
X12610Y14210D03*
X12610Y15210D03*
X33610Y07210D03*
X33610Y08210D03*
X33610Y09210D03*
X33610Y10210D03*
X33610Y11210D03*
X33610Y12210D03*
X33610Y13210D03*
X33610Y07210D03*
X33610Y08210D03*
X33610Y09210D03*
X33610Y10210D03*
X33610Y11210D03*
X33610Y12210D03*
X33610Y13210D03*
D11*
X01610Y05210D03*
X01610Y06210D03*
X01610Y07210D03*
X01610Y08210D03*
X01610Y09210D03*
X01610Y10210D03*
X01610Y11210D03*
X34610Y04210D03*
X34610Y03210D03*
X34610Y02210D03*
D12*
X19610Y07210D03*
X16620Y07210D03*
X16610Y12210D03*
X19600Y12210D03*
D13*
X19610Y08210D03*
X16610Y08210D03*
X16610Y11210D03*
X19610Y11210D03*
D14*
X15610Y12210D03*
X13610Y15210D03*
X05610Y13210D03*
X18610Y14220D03*
X13610Y14210D03*
X13610Y12210D03*
X07610Y03210D03*
X12610Y03210D03*
X06610Y03210D03*
X05610Y17210D03*
X13610Y04210D03*
X05610Y16210D03*
X21610Y13210D03*
X30610Y03210D03*
X29610Y03210D03*
X27610Y03210D03*
X30610Y06210D03*
X26610Y03210D03*
X25610Y03210D03*
X30610Y05210D03*
X30610Y04210D03*
X26610Y04210D03*
X27610Y04210D03*
X37610Y13210D03*
X37610Y07210D03*
X37610Y11210D03*
X37610Y10210D03*
X37610Y09210D03*
X37610Y06210D03*
X37610Y12210D03*
X37610Y08210D03*
X21610Y14210D03*
X20610Y10210D03*
X18610Y10210D03*
X13610Y10210D03*
X14610Y03210D03*
X14610Y04210D03*
X20610Y16210D03*
X14610Y16210D03*
X13610Y16210D03*
X19610Y17210D03*
X20610Y17210D03*
X16610Y16210D03*
X18610Y16210D03*
X29610Y16210D03*
X29610Y15210D03*
X29610Y18210D03*
D15*
X34610Y04210D03*
D16*
X19610Y07210D03*
X16610Y12210D03*
D17*
X33610Y06210D03*
X33610Y06210D03*
D18*
X07610Y16200D02*
X05620Y16200D01*
X07610Y16200D03*
X11620Y14210D02*
X07610Y16200D01*
X12610Y14210D02*
X11620Y14210D01*
X05620Y16200D02*
X04620Y16190D01*
X04620Y16190D02*
X03830Y15420D01*
X30620Y01200D03*
X30620Y01200D02*
X22760Y01200D01*
X34320Y02130D02*
X30620Y01200D01*
X22620Y01200D02*
X15630Y05190D01*
X22760Y01200D02*
X22620Y01200D01*
X15630Y05190D02*
X12920Y05210D01*
X11620Y14210D02*
X12610Y14210D01*
X07680Y03390D02*
X11620Y14210D01*
X05620Y16200D02*
X04620Y16200D01*
X04620Y16200D02*
X03830Y15420D01*
X22610Y12210D02*
X22410Y12450D01*
X22610Y12210D03*
X18750Y14080D02*
X18620Y14200D01*
X18620Y14200D02*
X21610Y12210D01*
X21610Y12210D02*
X22610Y12210D01*
X18610Y14030D02*
X18610Y10400D01*
X20610Y10020D02*
X20620Y08200D01*
X20620Y08200D02*
X19810Y07400D01*
X13620Y14200D02*
X16620Y08200D01*
X16620Y08200D02*
X16750Y07960D01*
X13700Y14040D02*
X13620Y14200D01*
X36610Y13210D02*
X37600Y12200D01*
X34620Y16210D02*
X36610Y13210D01*
X33610Y16210D02*
X34620Y16210D01*
X32610Y15210D02*
X32620Y15210D01*
X28630Y11200D02*
X32610Y15210D01*
X32620Y15210D02*
X32620Y15200D01*
X32620Y15200D02*
X33610Y16210D01*
X22870Y07380D02*
X28630Y11200D01*
X31610Y05220D02*
X30630Y04200D01*
X29620Y04200D02*
X28620Y03200D01*
X28620Y03200D02*
X27620Y04210D01*
X30630Y04200D02*
X29620Y04200D01*
X32620Y07200D02*
X31610Y05220D01*
X33600Y08200D02*
X32620Y07200D01*
X33600Y08200D03*
X28620Y07200D02*
X33600Y09200D01*
X30630Y05200D02*
X28620Y07200D01*
X28620Y07200D02*
X30630Y05200D01*
X26610Y04400D02*
X26620Y05200D01*
X29610Y02210D02*
X22610Y02210D01*
X30620Y03220D02*
X29610Y02210D01*
X18600Y06220D02*
X18610Y10020D01*
X22610Y02210D02*
X18600Y06220D01*
X37610Y07200D02*
X30620Y03220D01*
X28610Y16200D02*
X29610Y15220D01*
X29610Y15220D02*
X29610Y15200D01*
X22610Y15200D02*
X28610Y16200D01*
X29610Y15200D02*
X30610Y16200D01*
X30610Y16200D02*
X31400Y16990D01*
X29610Y15200D03*
X22410Y14970D02*
X22610Y15200D01*
X36610Y10210D02*
X34620Y13200D01*
X37480Y09340D02*
X36610Y10210D01*
X34620Y13200D02*
X33610Y13200D01*
X28630Y08190D02*
X22870Y04380D01*
X33610Y13200D02*
X28630Y08190D01*
X34620Y15210D02*
X36610Y12220D01*
X36610Y12220D02*
X37480Y11340D01*
X33610Y15210D02*
X34620Y15210D01*
X28630Y10210D02*
X33610Y15210D01*
X22870Y06380D02*
X28630Y10210D01*
X36610Y11210D02*
X37480Y10340D01*
X34620Y14210D02*
X36610Y11210D01*
X33610Y14210D02*
X34620Y14210D01*
X28630Y09220D02*
X33610Y14210D01*
X22870Y05380D02*
X28630Y09220D01*
X33920Y07280D02*
X37430Y08160D01*
X03620Y18200D02*
X05630Y18190D01*
X00620Y15200D02*
X03620Y18200D01*
X12610Y18200D02*
X18430Y16270D01*
X05630Y18190D02*
X12610Y18200D01*
X00600Y08200D02*
X00620Y15200D01*
X01400Y07420D02*
X00600Y08200D01*
X20610Y16020D02*
X20610Y14210D01*
X20610Y14210D02*
X21480Y13340D01*
X29610Y15200D02*
X30610Y16200D01*
X30610Y16200D02*
X31400Y16990D01*
X29610Y15200D03*
X26620Y05200D02*
X28620Y07200D01*
X27620Y04210D03*
D19*
X31970Y15580D03*
X31970Y15570D03*
X31970Y15560D03*
X31970Y15550D03*
X31970Y15540D03*
X31970Y15530D03*
X31970Y15520D03*
X31970Y15510D03*
X31970Y15500D03*
X31970Y15490D03*
X31970Y15480D03*
X31970Y15470D03*
X31970Y15460D03*
X31970Y15450D03*
X31970Y15440D03*
X31970Y15430D03*
X31970Y15420D03*
X31560Y15410D03*
X31970Y15410D03*
X31530Y15400D03*
X31970Y15400D03*
X31510Y15390D03*
X31970Y15390D03*
X31490Y15380D03*
X31970Y15380D03*
X31480Y15370D03*
X31970Y15370D03*
X31470Y15360D03*
X31970Y15360D03*
X31460Y15350D03*
X31970Y15350D03*
X31450Y15340D03*
X31970Y15340D03*
X31440Y15330D03*
X31970Y15330D03*
X31440Y15320D03*
X31970Y15320D03*
X31430Y15310D03*
X31970Y15310D03*
X31420Y15300D03*
X31970Y15300D03*
X31420Y15290D03*
X31970Y15290D03*
X31420Y15280D03*
X31970Y15280D03*
X31410Y15270D03*
X31970Y15270D03*
X31410Y15260D03*
X31970Y15260D03*
X31410Y15250D03*
X31970Y15250D03*
X31410Y15240D03*
X31970Y15240D03*
X31410Y15230D03*
X31970Y15230D03*
X31410Y15220D03*
X31970Y15220D03*
X31410Y15210D03*
X31970Y15210D03*
X31410Y15200D03*
X31970Y15200D03*
X31410Y15190D03*
X31970Y15190D03*
X31410Y15180D03*
X31970Y15180D03*
X31410Y15170D03*
X31970Y15170D03*
X31420Y15160D03*
X31970Y15160D03*
X31420Y15150D03*
X31970Y15150D03*
X31420Y15140D03*
X31970Y15140D03*
X31430Y15130D03*
X31970Y15130D03*
X31430Y15120D03*
X31970Y15120D03*
X31440Y15110D03*
X31970Y15110D03*
X31450Y15100D03*
X31970Y15100D03*
X31450Y15090D03*
X31970Y15090D03*
X31460Y15080D03*
X31970Y15080D03*
X31470Y15070D03*
X31970Y15070D03*
X31490Y15060D03*
X31970Y15060D03*
X31500Y15050D03*
X31970Y15050D03*
X31520Y15040D03*
X31970Y15040D03*
X31550Y15030D03*
X31970Y15030D03*
X31970Y15020D03*
X31970Y15010D03*
X31970Y15000D03*
X31970Y14990D03*
X31970Y14980D03*
X31970Y14970D03*
X31970Y14960D03*
X31970Y14950D03*
X31970Y14940D03*
X31970Y14930D03*
X31970Y14920D03*
X31970Y14910D03*
X31970Y14900D03*
X31970Y14890D03*
X31970Y14880D03*
X31970Y14870D03*
X31970Y14860D03*
X31970Y14850D03*
X03970Y14580D03*
X03970Y14570D03*
X03970Y14560D03*
X03970Y14550D03*
X03970Y14540D03*
X03970Y14530D03*
X03970Y14520D03*
X03970Y14510D03*
X03970Y14500D03*
X03970Y14490D03*
X03970Y14480D03*
X03970Y14470D03*
X03970Y14460D03*
X03970Y14450D03*
X03970Y14440D03*
X03970Y14430D03*
X03970Y14420D03*
X03560Y14410D03*
X03970Y14410D03*
X03530Y14400D03*
X03970Y14400D03*
X03510Y14390D03*
X03970Y14390D03*
X03490Y14380D03*
X03970Y14380D03*
X03480Y14370D03*
X03970Y14370D03*
X03470Y14360D03*
X03970Y14360D03*
X03460Y14350D03*
X03970Y14350D03*
X03450Y14340D03*
X03970Y14340D03*
X03440Y14330D03*
X03970Y14330D03*
X03440Y14320D03*
X03970Y14320D03*
X03430Y14310D03*
X03970Y14310D03*
X03420Y14300D03*
X03970Y14300D03*
X03420Y14290D03*
X03970Y14290D03*
X03420Y14280D03*
X03970Y14280D03*
X03410Y14270D03*
X03970Y14270D03*
X03410Y14260D03*
X03970Y14260D03*
X03410Y14250D03*
X03970Y14250D03*
X03410Y14240D03*
X03970Y14240D03*
X03410Y14230D03*
X03970Y14230D03*
X03410Y14220D03*
X03970Y14220D03*
X03410Y14210D03*
X03970Y14210D03*
X03410Y14200D03*
X03970Y14200D03*
X03410Y14190D03*
X03970Y14190D03*
X03410Y14180D03*
X03970Y14180D03*
X03410Y14170D03*
X03970Y14170D03*
X03420Y14160D03*
X03970Y14160D03*
X03420Y14150D03*
X03970Y14150D03*
X03420Y14140D03*
X03970Y14140D03*
X03430Y14130D03*
X03970Y14130D03*
X03430Y14120D03*
X03970Y14120D03*
X03440Y14110D03*
X03970Y14110D03*
X03450Y14100D03*
X03970Y14100D03*
X03450Y14090D03*
X03970Y14090D03*
X03460Y14080D03*
X03970Y14080D03*
X03470Y14070D03*
X03970Y14070D03*
X03490Y14060D03*
X03970Y14060D03*
X03500Y14050D03*
X03970Y14050D03*
X03520Y14040D03*
X03970Y14040D03*
X03550Y14030D03*
X03970Y14030D03*
X03970Y14020D03*
X03970Y14010D03*
X03970Y14000D03*
X03970Y13990D03*
X03970Y13980D03*
X03970Y13970D03*
X03970Y13960D03*
X03970Y13950D03*
X03970Y13940D03*
X03970Y13930D03*
X03970Y13920D03*
X03970Y13910D03*
X03970Y13900D03*
X03970Y13890D03*
X03970Y13880D03*
X03970Y13870D03*
X03970Y13860D03*
X03970Y13850D03*
X22612Y16181D03*
D22*
X22608Y16191D03*
M02*
