<?xml version='1.0' encoding='UTF-8' standalone='no'?>
<!-- Created with Fritzing (http://www.fritzing.org/) -->
<svg xmlns="http://www.w3.org/2000/svg" viewBox="0 0 283.465 141.732" version="1.2" xmlns:svg="http://www.w3.org/2000/svg" y="0in" x="0in" width="3.93701in" baseProfile="tiny" height="1.9685in" >
 <g partID="854475050">
  <g id="board" >
   <rect id="boardoutline" y="0.288" fill="none" x="0.288" width="282.889" stroke-width="0.5" fill-opacity="0.5" height="141.156" stroke="black" />
  </g>
 </g>
 <g partID="854538150">
  <g transform="translate(159.215,21.444)">
   <g id="copper0" flipped="1">
    <g transform="matrix(-1, 0, 0, 1, 50.4, 0)">
     <g>
      <g>
       <g>
        <g id="copper0">
         <circle id="connector14pad" fill="none" stroke-width="1.224" cy="3.6" cx="43.2" stroke="black" r="2.052"/>
         <circle id="connector15pad" fill="none" stroke-width="1.224" cy="3.6" cx="36" stroke="black" r="2.052"/>
         <circle id="connector16pad" fill="none" stroke-width="1.224" cy="3.6" cx="28.8" stroke="black" r="2.052"/>
         <circle id="connector17pad" fill="none" stroke-width="1.224" cy="3.6" cx="21.6" stroke="black" r="2.052"/>
         <circle id="connector18pad" fill="none" stroke-width="1.224" cy="3.6" cx="14.4" stroke="black" r="2.052"/>
         <circle id="connector19pad" fill="none" stroke-width="1.224" cy="3.6" cx="7.2" stroke="black" r="2.052"/>
         <circle id="connector25pad" fill="none" stroke-width="1.224" cy="10.8" cx="46.8" stroke="black" r="2.052"/>
         <circle id="connector26pad" fill="none" stroke-width="1.224" cy="18" cx="46.8" stroke="black" r="2.052"/>
         <circle id="connector27pad" fill="none" stroke-width="1.224" cy="25.2" cx="46.8" stroke="black" r="2.052"/>
         <circle id="connector28pad" fill="none" stroke-width="1.224" cy="32.4" cx="46.8" stroke="black" r="2.052"/>
         <circle id="connector29pad" fill="none" stroke-width="1.224" cy="39.6" cx="46.8" stroke="black" r="2.052"/>
         <circle id="connector21pad" fill="none" stroke-width="1.224" cy="35.64" cx="38.519" stroke="black" r="2.052"/>
         <circle id="connector20pad" fill="none" stroke-width="1.224" cy="42.84" cx="38.519" stroke="black" r="2.052"/>
         <circle id="connector30pad" fill="none" stroke-width="1.224" cy="46.8" cx="46.8" stroke="black" r="2.052"/>
         <circle id="connector31pad" fill="none" stroke-width="1.224" cy="54" cx="46.8" stroke="black" r="2.052"/>
         <circle id="connector32pad" fill="none" stroke-width="1.224" cy="61.2" cx="46.8" stroke="black" r="2.052"/>
         <circle id="connector33pad" fill="none" stroke-width="1.224" cy="68.4" cx="46.8" stroke="black" r="2.052"/>
         <circle id="connector34pad" fill="none" stroke-width="1.224" cy="75.6" cx="46.8" stroke="black" r="2.052"/>
         <circle id="connector35pad" fill="none" stroke-width="1.224" cy="82.8" cx="46.8" stroke="black" r="2.052"/>
         <circle id="connector36pad" fill="none" stroke-width="1.224" cy="90" cx="46.8" stroke="black" r="2.052"/>
         <circle id="connector37pad" fill="none" stroke-width="1.224" cy="90" cx="3.6" stroke="black" r="2.052"/>
         <circle id="connector38pad" fill="none" stroke-width="1.224" cy="82.8" cx="3.6" stroke="black" r="2.052"/>
         <circle id="connector39pad" fill="none" stroke-width="1.224" cy="75.6" cx="3.6" stroke="black" r="2.052"/>
         <circle id="connector40pad" fill="none" stroke-width="1.224" cy="68.4" cx="3.6" stroke="black" r="2.052"/>
         <circle id="connector41pad" fill="none" stroke-width="1.224" cy="61.2" cx="3.6" stroke="black" r="2.052"/>
         <circle id="connector42pad" fill="none" stroke-width="1.224" cy="54" cx="3.6" stroke="black" r="2.052"/>
         <circle id="connector43pad" fill="none" stroke-width="1.224" cy="46.8" cx="3.6" stroke="black" r="2.052"/>
         <circle id="connector44pad" fill="none" stroke-width="1.224" cy="39.6" cx="3.6" stroke="black" r="2.052"/>
         <circle id="connector45pad" fill="none" stroke-width="1.224" cy="32.4" cx="3.6" stroke="black" r="2.052"/>
         <circle id="connector46pad" fill="none" stroke-width="1.224" cy="25.2" cx="3.6" stroke="black" r="2.052"/>
         <circle id="connector47pad" fill="none" stroke-width="1.224" cy="18" cx="3.6" stroke="black" r="2.052"/>
         <circle id="connector48pad" fill="none" stroke-width="1.224" cy="10.8" cx="3.6" stroke="black" r="2.052"/>
        </g>
       </g>
       <g>
        <circle id="connector14pad" fill="none" stroke-width="1.224" cy="3.6" cx="43.2" stroke="black" r="2.052"/>
        <circle id="connector15pad" fill="none" stroke-width="1.224" cy="3.6" cx="36" stroke="black" r="2.052"/>
        <circle id="connector16pad" fill="none" stroke-width="1.224" cy="3.6" cx="28.8" stroke="black" r="2.052"/>
        <circle id="connector17pad" fill="none" stroke-width="1.224" cy="3.6" cx="21.6" stroke="black" r="2.052"/>
        <circle id="connector18pad" fill="none" stroke-width="1.224" cy="3.6" cx="14.4" stroke="black" r="2.052"/>
        <circle id="connector19pad" fill="none" stroke-width="1.224" cy="3.6" cx="7.2" stroke="black" r="2.052"/>
        <circle id="connector25pad" fill="none" stroke-width="1.224" cy="10.8" cx="46.8" stroke="black" r="2.052"/>
        <circle id="connector26pad" fill="none" stroke-width="1.224" cy="18" cx="46.8" stroke="black" r="2.052"/>
        <circle id="connector27pad" fill="none" stroke-width="1.224" cy="25.2" cx="46.8" stroke="black" r="2.052"/>
        <circle id="connector28pad" fill="none" stroke-width="1.224" cy="32.4" cx="46.8" stroke="black" r="2.052"/>
        <circle id="connector29pad" fill="none" stroke-width="1.224" cy="39.6" cx="46.8" stroke="black" r="2.052"/>
        <circle id="connector21pad" fill="none" stroke-width="1.224" cy="35.64" cx="38.519" stroke="black" r="2.052"/>
        <circle id="connector20pad" fill="none" stroke-width="1.224" cy="42.84" cx="38.519" stroke="black" r="2.052"/>
        <circle id="connector30pad" fill="none" stroke-width="1.224" cy="46.8" cx="46.8" stroke="black" r="2.052"/>
        <circle id="connector31pad" fill="none" stroke-width="1.224" cy="54" cx="46.8" stroke="black" r="2.052"/>
        <circle id="connector32pad" fill="none" stroke-width="1.224" cy="61.2" cx="46.8" stroke="black" r="2.052"/>
        <circle id="connector33pad" fill="none" stroke-width="1.224" cy="68.4" cx="46.8" stroke="black" r="2.052"/>
        <circle id="connector34pad" fill="none" stroke-width="1.224" cy="75.6" cx="46.8" stroke="black" r="2.052"/>
        <circle id="connector35pad" fill="none" stroke-width="1.224" cy="82.8" cx="46.8" stroke="black" r="2.052"/>
        <circle id="connector36pad" fill="none" stroke-width="1.224" cy="90" cx="46.8" stroke="black" r="2.052"/>
        <circle id="connector37pad" fill="none" stroke-width="1.224" cy="90" cx="3.6" stroke="black" r="2.052"/>
        <circle id="connector38pad" fill="none" stroke-width="1.224" cy="82.8" cx="3.6" stroke="black" r="2.052"/>
        <circle id="connector39pad" fill="none" stroke-width="1.224" cy="75.6" cx="3.6" stroke="black" r="2.052"/>
        <circle id="connector40pad" fill="none" stroke-width="1.224" cy="68.4" cx="3.6" stroke="black" r="2.052"/>
        <circle id="connector41pad" fill="none" stroke-width="1.224" cy="61.2" cx="3.6" stroke="black" r="2.052"/>
        <circle id="connector42pad" fill="none" stroke-width="1.224" cy="54" cx="3.6" stroke="black" r="2.052"/>
        <circle id="connector43pad" fill="none" stroke-width="1.224" cy="46.8" cx="3.6" stroke="black" r="2.052"/>
        <circle id="connector44pad" fill="none" stroke-width="1.224" cy="39.6" cx="3.6" stroke="black" r="2.052"/>
        <circle id="connector45pad" fill="none" stroke-width="1.224" cy="32.4" cx="3.6" stroke="black" r="2.052"/>
        <circle id="connector46pad" fill="none" stroke-width="1.224" cy="25.2" cx="3.6" stroke="black" r="2.052"/>
        <circle id="connector47pad" fill="none" stroke-width="1.224" cy="18" cx="3.6" stroke="black" r="2.052"/>
        <circle id="connector48pad" fill="none" stroke-width="1.224" cy="10.8" cx="3.6" stroke="black" r="2.052"/>
       </g>
      </g>
     </g>
    </g>
   </g>
  </g>
 </g>
 <g partID="854475060">
  <g transform="translate(-115.195,113.15)">
   <g transform="matrix(0,-1,1,0,0,0)">
    <g id="copper0" >
     <circle id="connector0pin" fill="none" cy="126.817" stroke-width="1.44" gorn="0.2.0.3" cx="8.91372" connectorname="BLU" stroke="black" r="2.088" />
     <circle id="connector1pin" fill="none" cy="126.817" stroke-width="1.44" gorn="0.2.0.5" cx="16.1136" connectorname="RED" stroke="black" r="2.088" />
     <circle id="connector2pin" fill="none" cy="126.817" stroke-width="1.44" gorn="0.2.0.6" cx="23.3135" connectorname="GRN" stroke="black" r="2.088" />
     <circle id="connector3pin" fill="none" cy="126.817" stroke-width="1.44" gorn="0.2.0.7" cx="30.5133" connectorname="WHT" stroke="black" r="2.088" />
     <circle id="connector4pin" fill="none" cy="126.817" stroke-width="1.44" gorn="0.2.0.8" cx="37.7132" connectorname="UP" stroke="black" r="2.088" />
     <circle id="connector5pin" fill="none" cy="126.817" stroke-width="1.44" gorn="0.2.0.10" cx="44.9131" connectorname="DWN" stroke="black" r="2.088" />
     <circle id="connector6pin" fill="none" cy="126.817" stroke-width="1.44" gorn="0.2.0.11" cx="52.1129" connectorname="LFT" stroke="black" r="2.088" />
    </g>
   </g>
  </g>
 </g>
 <g partID="854475090">
  <g transform="translate(18.5272,46.932)">
   <g transform="matrix(0,-1,1,0,0,0)">
    <g id="copper0" >
     <circle id="connector0pad" fill="none" cy="7.488" stroke-width="1.24668" cx="7.488" connectorname="ADJ" stroke="black" r="2.04066" />
     <path fill="black" stroke-width="0" stroke="none" d="m4.824,4.824,5.328,0,0,5.328,-5.328,0,0,-5.328zM6.07068,7.488a1.41732,1.41732,0,1,0,2.83465,0,1.41732,1.41732,0,1,0,-2.83465,0z" />
     <circle id="connector2pad" fill="none" cy="7.488" stroke-width="1.24668" cx="14.688" connectorname="OUT" stroke="black" r="2.04066" />
     <circle id="connector1pad" fill="none" cy="7.488" stroke-width="1.24668" cx="21.888" connectorname="IN" stroke="black" r="2.04066" />
    </g>
   </g>
  </g>
 </g>
 <g partID="854579230">
  <g transform="translate(220.127,39.732)">
   <g transform="matrix(0,-1,1,0,0,0)">
    <g id="copper0" >
     <circle id="connector0pad" fill="none" cy="7.488" stroke-width="1.24668" cx="7.488" connectorname="ADJ" stroke="black" r="2.04066" />
     <path fill="black" stroke-width="0" stroke="none" d="m4.824,4.824,5.328,0,0,5.328,-5.328,0,0,-5.328zM6.07068,7.488a1.41732,1.41732,0,1,0,2.83465,0,1.41732,1.41732,0,1,0,-2.83465,0z" />
     <circle id="connector2pad" fill="none" cy="7.488" stroke-width="1.24668" cx="14.688" connectorname="OUT" stroke="black" r="2.04066" />
     <circle id="connector1pad" fill="none" cy="7.488" stroke-width="1.24668" cx="21.888" connectorname="IN" stroke="black" r="2.04066" />
    </g>
   </g>
  </g>
 </g>
 <g partID="854475160">
  <g transform="translate(244.175,106.404)">
   <g id="copper0" >
    <rect id="square" y="2.952" fill="none" x="2.952" width="4.176" stroke-width="1.44" height="4.176" stroke="black" />
    <circle id="connector0pin" fill="none" cy="5.04" stroke-width="1.44" cx="5.04" stroke="black" r="2.088" />
    <circle id="connector1pin" fill="none" cy="12.24" stroke-width="1.44" cx="5.04" stroke="black" r="2.088" />
    <circle id="connector2pin" fill="none" cy="19.44" stroke-width="1.44" cx="5.04" stroke="black" r="2.088" />
   </g>
  </g>
 </g>
 <g partID="854475170">
  <g transform="translate(144.951,93.136)">
   <g transform="matrix(-1,0,0,-1,0,0)">
    <g id="copper0" >
     <circle id="connector0pin" fill="none" stroke-width="1.5" cy="3.292" cx="3.737" stroke="black" r="1.974" />
     <circle id="connector3pin" fill="none" stroke-width="1.5" cy="3.292" cx="25.265" stroke="black" r="1.974" />
     <circle id="connector1pin" fill="none" stroke-width="1.5" cy="10.492" cx="3.737" stroke="black" r="1.975" />
     <circle id="connector5pin" fill="none" stroke-width="1.5" cy="10.492" cx="25.336" stroke="black" r="1.975" />
     <rect id="rect3036" y="1.318" x="1.762" fill="none" width="3.948" stroke-width="1.5" height="3.948" stroke="black" />
    </g>
   </g>
  </g>
 </g>
 <g partID="854578870">
  <g transform="translate(115.879,50.552)">
   <g id="copper0" >
    <circle id="connector0pin" fill="none" stroke-width="1.5" cy="3.292" cx="3.737" stroke="black" r="1.974" />
    <circle id="connector3pin" fill="none" stroke-width="1.5" cy="3.292" cx="25.265" stroke="black" r="1.974" />
    <circle id="connector1pin" fill="none" stroke-width="1.5" cy="10.492" cx="3.737" stroke="black" r="1.975" />
    <circle id="connector5pin" fill="none" stroke-width="1.5" cy="10.492" cx="25.336" stroke="black" r="1.975" />
    <rect id="rect3036" y="1.318" x="1.762" fill="none" width="3.948" stroke-width="1.5" height="3.948" stroke="black" />
   </g>
  </g>
 </g>
 <g partID="854521710">
  <g transform="translate(109.398,50.8264)">
   <g id="copper0" >
    <circle id="connector0pin" fill="none" cy="3.01733" stroke-width="0.850392" cx="3.01733" stroke="black" r="0.992124" />
   </g>
  </g>
 </g>
 <g partID="854523790">
  <g transform="translate(94.9976,29.2264)">
   <g id="copper0" >
    <circle id="connector0pin" fill="none" cy="3.01733" stroke-width="0.850392" cx="3.01733" stroke="black" r="0.992124" />
   </g>
  </g>
 </g>
 <g partID="854520550">
  <g transform="translate(37.3976,43.6264)">
   <g id="copper0" >
    <circle id="connector0pin" fill="none" cy="3.01733" stroke-width="0.850392" cx="3.01733" stroke="black" r="0.992124" />
   </g>
  </g>
 </g>
 <g partID="854524150">
  <g transform="translate(130.99,36.3536)">
   <g id="copper0" >
    <circle id="connector0pin" fill="none" cy="3.01733" stroke-width="0.850392" cx="3.01733" stroke="black" r="0.992124" />
   </g>
  </g>
 </g>
 <g partID="854523920">
  <g transform="translate(94.9976,36.4264)">
   <g id="copper0" >
    <circle id="connector0pin" fill="none" cy="3.01733" stroke-width="0.850392" cx="3.01733" stroke="black" r="0.992124" />
   </g>
  </g>
 </g>
 <g partID="854521170">
  <g transform="translate(94.9976,50.8264)">
   <g id="copper0" >
    <circle id="connector0pin" fill="none" cy="3.01733" stroke-width="0.850392" cx="3.01733" stroke="black" r="0.992124" />
   </g>
  </g>
 </g>
 <g partID="854514320">
  <g transform="translate(51.7976,115.626)">
   <g id="copper0" >
    <circle id="connector0pin" fill="none" cy="3.01733" stroke-width="0.850392" cx="3.01733" stroke="black" r="0.992124" />
   </g>
  </g>
 </g>
 <g partID="854515690">
  <g transform="translate(87.7976,115.626)">
   <g id="copper0" >
    <circle id="connector0pin" fill="none" cy="3.01733" stroke-width="0.850392" cx="3.01733" stroke="black" r="0.992124" />
   </g>
  </g>
 </g>
 <g partID="854513520">
  <g transform="translate(44.5976,115.626)">
   <g id="copper0" >
    <circle id="connector0pin" fill="none" cy="3.01733" stroke-width="0.850392" cx="3.01733" stroke="black" r="0.992124" />
   </g>
  </g>
 </g>
 <g partID="854520140">
  <g transform="translate(37.3976,14.8264)">
   <g id="copper0" >
    <circle id="connector0pin" fill="none" cy="3.01733" stroke-width="0.850392" cx="3.01733" stroke="black" r="0.992124" />
   </g>
  </g>
 </g>
 <g partID="854516040">
  <g transform="translate(94.9976,108.426)">
   <g id="copper0" >
    <circle id="connector0pin" fill="none" cy="3.01733" stroke-width="0.850392" cx="3.01733" stroke="black" r="0.992124" />
   </g>
  </g>
 </g>
 <g partID="854519080">
  <g transform="translate(37.3976,22.0264)">
   <g id="copper0" >
    <circle id="connector0pin" fill="none" cy="3.01733" stroke-width="0.850392" cx="3.01733" stroke="black" r="0.992124" />
   </g>
  </g>
 </g>
 <g partID="854475220">
  <g transform="translate(44.0152,21.444)">
   <g id="copper0" flipped="1">
    <g transform="matrix(-1, 0, 0, 1, 50.4, 0)">
     <g>
      <g>
       <g>
        <g id="copper0">
         <circle id="connector14pad" fill="none" stroke-width="1.224" cy="3.6" cx="43.2" stroke="black" r="2.052"/>
         <circle id="connector15pad" fill="none" stroke-width="1.224" cy="3.6" cx="36" stroke="black" r="2.052"/>
         <circle id="connector16pad" fill="none" stroke-width="1.224" cy="3.6" cx="28.8" stroke="black" r="2.052"/>
         <circle id="connector17pad" fill="none" stroke-width="1.224" cy="3.6" cx="21.6" stroke="black" r="2.052"/>
         <circle id="connector18pad" fill="none" stroke-width="1.224" cy="3.6" cx="14.4" stroke="black" r="2.052"/>
         <circle id="connector19pad" fill="none" stroke-width="1.224" cy="3.6" cx="7.2" stroke="black" r="2.052"/>
         <circle id="connector25pad" fill="none" stroke-width="1.224" cy="10.8" cx="46.8" stroke="black" r="2.052"/>
         <circle id="connector26pad" fill="none" stroke-width="1.224" cy="18" cx="46.8" stroke="black" r="2.052"/>
         <circle id="connector27pad" fill="none" stroke-width="1.224" cy="25.2" cx="46.8" stroke="black" r="2.052"/>
         <circle id="connector28pad" fill="none" stroke-width="1.224" cy="32.4" cx="46.8" stroke="black" r="2.052"/>
         <circle id="connector29pad" fill="none" stroke-width="1.224" cy="39.6" cx="46.8" stroke="black" r="2.052"/>
         <circle id="connector21pad" fill="none" stroke-width="1.224" cy="35.64" cx="38.519" stroke="black" r="2.052"/>
         <circle id="connector20pad" fill="none" stroke-width="1.224" cy="42.84" cx="38.519" stroke="black" r="2.052"/>
         <circle id="connector30pad" fill="none" stroke-width="1.224" cy="46.8" cx="46.8" stroke="black" r="2.052"/>
         <circle id="connector31pad" fill="none" stroke-width="1.224" cy="54" cx="46.8" stroke="black" r="2.052"/>
         <circle id="connector32pad" fill="none" stroke-width="1.224" cy="61.2" cx="46.8" stroke="black" r="2.052"/>
         <circle id="connector33pad" fill="none" stroke-width="1.224" cy="68.4" cx="46.8" stroke="black" r="2.052"/>
         <circle id="connector34pad" fill="none" stroke-width="1.224" cy="75.6" cx="46.8" stroke="black" r="2.052"/>
         <circle id="connector35pad" fill="none" stroke-width="1.224" cy="82.8" cx="46.8" stroke="black" r="2.052"/>
         <circle id="connector36pad" fill="none" stroke-width="1.224" cy="90" cx="46.8" stroke="black" r="2.052"/>
         <circle id="connector37pad" fill="none" stroke-width="1.224" cy="90" cx="3.6" stroke="black" r="2.052"/>
         <circle id="connector38pad" fill="none" stroke-width="1.224" cy="82.8" cx="3.6" stroke="black" r="2.052"/>
         <circle id="connector39pad" fill="none" stroke-width="1.224" cy="75.6" cx="3.6" stroke="black" r="2.052"/>
         <circle id="connector40pad" fill="none" stroke-width="1.224" cy="68.4" cx="3.6" stroke="black" r="2.052"/>
         <circle id="connector41pad" fill="none" stroke-width="1.224" cy="61.2" cx="3.6" stroke="black" r="2.052"/>
         <circle id="connector42pad" fill="none" stroke-width="1.224" cy="54" cx="3.6" stroke="black" r="2.052"/>
         <circle id="connector43pad" fill="none" stroke-width="1.224" cy="46.8" cx="3.6" stroke="black" r="2.052"/>
         <circle id="connector44pad" fill="none" stroke-width="1.224" cy="39.6" cx="3.6" stroke="black" r="2.052"/>
         <circle id="connector45pad" fill="none" stroke-width="1.224" cy="32.4" cx="3.6" stroke="black" r="2.052"/>
         <circle id="connector46pad" fill="none" stroke-width="1.224" cy="25.2" cx="3.6" stroke="black" r="2.052"/>
         <circle id="connector47pad" fill="none" stroke-width="1.224" cy="18" cx="3.6" stroke="black" r="2.052"/>
         <circle id="connector48pad" fill="none" stroke-width="1.224" cy="10.8" cx="3.6" stroke="black" r="2.052"/>
        </g>
       </g>
       <g>
        <circle id="connector14pad" fill="none" stroke-width="1.224" cy="3.6" cx="43.2" stroke="black" r="2.052"/>
        <circle id="connector15pad" fill="none" stroke-width="1.224" cy="3.6" cx="36" stroke="black" r="2.052"/>
        <circle id="connector16pad" fill="none" stroke-width="1.224" cy="3.6" cx="28.8" stroke="black" r="2.052"/>
        <circle id="connector17pad" fill="none" stroke-width="1.224" cy="3.6" cx="21.6" stroke="black" r="2.052"/>
        <circle id="connector18pad" fill="none" stroke-width="1.224" cy="3.6" cx="14.4" stroke="black" r="2.052"/>
        <circle id="connector19pad" fill="none" stroke-width="1.224" cy="3.6" cx="7.2" stroke="black" r="2.052"/>
        <circle id="connector25pad" fill="none" stroke-width="1.224" cy="10.8" cx="46.8" stroke="black" r="2.052"/>
        <circle id="connector26pad" fill="none" stroke-width="1.224" cy="18" cx="46.8" stroke="black" r="2.052"/>
        <circle id="connector27pad" fill="none" stroke-width="1.224" cy="25.2" cx="46.8" stroke="black" r="2.052"/>
        <circle id="connector28pad" fill="none" stroke-width="1.224" cy="32.4" cx="46.8" stroke="black" r="2.052"/>
        <circle id="connector29pad" fill="none" stroke-width="1.224" cy="39.6" cx="46.8" stroke="black" r="2.052"/>
        <circle id="connector21pad" fill="none" stroke-width="1.224" cy="35.64" cx="38.519" stroke="black" r="2.052"/>
        <circle id="connector20pad" fill="none" stroke-width="1.224" cy="42.84" cx="38.519" stroke="black" r="2.052"/>
        <circle id="connector30pad" fill="none" stroke-width="1.224" cy="46.8" cx="46.8" stroke="black" r="2.052"/>
        <circle id="connector31pad" fill="none" stroke-width="1.224" cy="54" cx="46.8" stroke="black" r="2.052"/>
        <circle id="connector32pad" fill="none" stroke-width="1.224" cy="61.2" cx="46.8" stroke="black" r="2.052"/>
        <circle id="connector33pad" fill="none" stroke-width="1.224" cy="68.4" cx="46.8" stroke="black" r="2.052"/>
        <circle id="connector34pad" fill="none" stroke-width="1.224" cy="75.6" cx="46.8" stroke="black" r="2.052"/>
        <circle id="connector35pad" fill="none" stroke-width="1.224" cy="82.8" cx="46.8" stroke="black" r="2.052"/>
        <circle id="connector36pad" fill="none" stroke-width="1.224" cy="90" cx="46.8" stroke="black" r="2.052"/>
        <circle id="connector37pad" fill="none" stroke-width="1.224" cy="90" cx="3.6" stroke="black" r="2.052"/>
        <circle id="connector38pad" fill="none" stroke-width="1.224" cy="82.8" cx="3.6" stroke="black" r="2.052"/>
        <circle id="connector39pad" fill="none" stroke-width="1.224" cy="75.6" cx="3.6" stroke="black" r="2.052"/>
        <circle id="connector40pad" fill="none" stroke-width="1.224" cy="68.4" cx="3.6" stroke="black" r="2.052"/>
        <circle id="connector41pad" fill="none" stroke-width="1.224" cy="61.2" cx="3.6" stroke="black" r="2.052"/>
        <circle id="connector42pad" fill="none" stroke-width="1.224" cy="54" cx="3.6" stroke="black" r="2.052"/>
        <circle id="connector43pad" fill="none" stroke-width="1.224" cy="46.8" cx="3.6" stroke="black" r="2.052"/>
        <circle id="connector44pad" fill="none" stroke-width="1.224" cy="39.6" cx="3.6" stroke="black" r="2.052"/>
        <circle id="connector45pad" fill="none" stroke-width="1.224" cy="32.4" cx="3.6" stroke="black" r="2.052"/>
        <circle id="connector46pad" fill="none" stroke-width="1.224" cy="25.2" cx="3.6" stroke="black" r="2.052"/>
        <circle id="connector47pad" fill="none" stroke-width="1.224" cy="18" cx="3.6" stroke="black" r="2.052"/>
        <circle id="connector48pad" fill="none" stroke-width="1.224" cy="10.8" cx="3.6" stroke="black" r="2.052"/>
       </g>
      </g>
     </g>
    </g>
   </g>
  </g>
 </g>
 <g partID="854524070">
  <g transform="translate(152.598,43.6264)">
   <g id="copper0" >
    <circle id="connector0pin" fill="none" cy="3.01733" stroke-width="0.850392" cx="3.01733" stroke="black" r="0.992124" />
   </g>
  </g>
 </g>
 <g partID="854557250">
  <g transform="translate(217.398,115.626)">
   <g id="copper0" >
    <circle id="connector0pin" fill="none" cy="3.01733" stroke-width="0.850392" cx="3.01733" stroke="black" r="0.992124" />
   </g>
  </g>
 </g>
 <g partID="854555830">
  <g transform="translate(210.198,115.626)">
   <g id="copper0" >
    <circle id="connector0pin" fill="none" cy="3.01733" stroke-width="0.850392" cx="3.01733" stroke="black" r="0.992124" />
   </g>
  </g>
 </g>
 <g partID="854568080">
  <g transform="translate(195.798,115.626)">
   <g id="copper0" >
    <circle id="connector0pin" fill="none" cy="3.01733" stroke-width="0.850392" cx="3.01733" stroke="black" r="0.992124" />
   </g>
  </g>
 </g>
 <g partID="854566960">
  <g transform="translate(217.398,94.0264)">
   <g id="copper0" >
    <circle id="connector0pin" fill="none" cy="3.01733" stroke-width="0.850392" cx="3.01733" stroke="black" r="0.992124" />
   </g>
  </g>
 </g>
 <g partID="854566920">
  <g transform="translate(188.598,115.626)">
   <g id="copper0" >
    <circle id="connector0pin" fill="none" cy="3.01733" stroke-width="0.850392" cx="3.01733" stroke="black" r="0.992124" />
   </g>
  </g>
 </g>
 <g partID="854566870">
  <g transform="translate(181.398,115.626)">
   <g id="copper0" >
    <circle id="connector0pin" fill="none" cy="3.01733" stroke-width="0.850392" cx="3.01733" stroke="black" r="0.992124" />
   </g>
  </g>
 </g>
 <g partID="854555170">
  <g transform="translate(217.398,101.226)">
   <g id="copper0" >
    <circle id="connector0pin" fill="none" cy="3.01733" stroke-width="0.850392" cx="3.01733" stroke="black" r="0.992124" />
   </g>
  </g>
 </g>
 <g partID="854554940">
  <g transform="translate(217.398,108.426)">
   <g id="copper0" >
    <circle id="connector0pin" fill="none" cy="3.01733" stroke-width="0.850392" cx="3.01733" stroke="black" r="0.992124" />
   </g>
  </g>
 </g>
 <g partID="854547900">
  <g transform="translate(188.598,108.426)">
   <g id="copper0" >
    <circle id="connector0pin" fill="none" cy="3.01733" stroke-width="0.850392" cx="3.01733" stroke="black" r="0.992124" />
   </g>
  </g>
 </g>
 <g partID="854547880">
  <g transform="translate(195.798,108.426)">
   <g id="copper0" >
    <circle id="connector0pin" fill="none" cy="3.01733" stroke-width="0.850392" cx="3.01733" stroke="black" r="0.992124" />
   </g>
  </g>
 </g>
 <g partID="854538590">
  <g transform="translate(267.798,43.6264)">
   <g id="copper0" >
    <circle id="connector0pin" fill="none" cy="3.01733" stroke-width="0.850392" cx="3.01733" stroke="black" r="0.992124" />
   </g>
  </g>
 </g>
 <g partID="854533920">
  <g transform="translate(267.798,86.8264)">
   <g id="copper0" >
    <circle id="connector0pin" fill="none" cy="3.01733" stroke-width="0.850392" cx="3.01733" stroke="black" r="0.992124" />
   </g>
  </g>
 </g>
 <g partID="854533650">
  <g transform="translate(267.798,58.0264)">
   <g id="copper0" >
    <circle id="connector0pin" fill="none" cy="3.01733" stroke-width="0.850392" cx="3.01733" stroke="black" r="0.992124" />
   </g>
  </g>
 </g>
 <g partID="854533630">
  <g transform="translate(267.798,65.2264)">
   <g id="copper0" >
    <circle id="connector0pin" fill="none" cy="3.01733" stroke-width="0.850392" cx="3.01733" stroke="black" r="0.992124" />
   </g>
  </g>
 </g>
 <g partID="854533610">
  <g transform="translate(267.798,72.4264)">
   <g id="copper0" >
    <circle id="connector0pin" fill="none" cy="3.01733" stroke-width="0.850392" cx="3.01733" stroke="black" r="0.992124" />
   </g>
  </g>
 </g>
 <g partID="854533410">
  <g transform="translate(267.798,94.0264)">
   <g id="copper0" >
    <circle id="connector0pin" fill="none" cy="3.01733" stroke-width="0.850392" cx="3.01733" stroke="black" r="0.992124" />
   </g>
  </g>
 </g>
 <g partID="854533310">
  <g transform="translate(267.798,50.8264)">
   <g id="copper0" >
    <circle id="connector0pin" fill="none" cy="3.01733" stroke-width="0.850392" cx="3.01733" stroke="black" r="0.992124" />
   </g>
  </g>
 </g>
 <g partID="854533290">
  <g transform="translate(267.798,79.6264)">
   <g id="copper0" >
    <circle id="connector0pin" fill="none" cy="3.01733" stroke-width="0.850392" cx="3.01733" stroke="black" r="0.992124" />
   </g>
  </g>
 </g>
 <g partID="854528270">
  <g transform="translate(152.598,36.4264)">
   <g id="copper0" >
    <circle id="connector0pin" fill="none" cy="3.01733" stroke-width="0.850392" cx="3.01733" stroke="black" r="0.992124" />
   </g>
  </g>
 </g>
 <g partID="854525610">
  <g transform="translate(145.398,65.2264)">
   <g id="copper0" >
    <circle id="connector0pin" fill="none" cy="3.01733" stroke-width="0.850392" cx="3.01733" stroke="black" r="0.992124" />
   </g>
  </g>
 </g>
 <g partID="854525440">
  <g transform="translate(130.998,65.2264)">
   <g id="copper0" >
    <circle id="connector0pin" fill="none" cy="3.01733" stroke-width="0.850392" cx="3.01733" stroke="black" r="0.992124" />
   </g>
  </g>
 </g>
 <g partID="854527330">
  <g transform="translate(94.9976,72.4264)">
   <g id="copper0" >
    <circle id="connector0pin" fill="none" cy="3.01733" stroke-width="0.850392" cx="3.01733" stroke="black" r="0.992124" />
   </g>
  </g>
 </g>
 <g partID="854537850">
  <g transform="translate(282.522,100.638)">
   <g transform="matrix(-1,0,0,-1,0,0)">
    <g id="copper0" flipped="1">
     <g transform="matrix(-1, 0, 0, 1, 44.1071, 0)">
      <g>
       <g transform="matrix(1, 0, 0, 1, -3.24, -5.04)">
        <g>
         <g transform="matrix(1, 0, 0, 1, 0, -6.48799e-07)">
          <g>
           <g>
            <g gorn="0.0.0.0.0.4.0.0.0">
             <g id="copper0" gorn="0.0.0.0.0.4.0.0.0.0">
              <rect id="connector0pin" y="6.58857" x="4.788" fill="none" width="4.104" stroke-width="1.224" gorn="0.0.0.0.0.4.0.0.0.0.0" height="4.104" stroke="black"/>
              <circle id="connector1pin" fill="none" stroke-width="1.224" cy="15.8336" gorn="0.0.0.0.0.4.0.0.0.0.1" cx="6.84" connectorname="RED" stroke="black" r="2.052"/>
              <circle id="connector2pin" fill="none" stroke-width="1.224" cy="23.0336" gorn="0.0.0.0.0.4.0.0.0.0.2" cx="6.84" connectorname="RED" stroke="black" r="2.052"/>
              <circle id="connector3pin" fill="none" stroke-width="1.224" cy="30.2336" gorn="0.0.0.0.0.4.0.0.0.0.3" cx="6.84" connectorname="RED" stroke="black" r="2.052"/>
              <circle id="connector4pin" fill="none" stroke-width="1.224" cy="37.4336" gorn="0.0.0.0.0.4.0.0.0.0.4" cx="6.84" connectorname="RED" stroke="black" r="2.052"/>
              <circle id="connector5pin" fill="none" stroke-width="1.224" cy="44.6336" gorn="0.0.0.0.0.4.0.0.0.0.5" cx="6.84" connectorname="RED" stroke="black" r="2.052"/>
              <circle id="connector6pin" fill="none" stroke-width="1.224" cy="51.8336" gorn="0.0.0.0.0.4.0.0.0.0.6" cx="6.84" connectorname="RED" stroke="black" r="2.052"/>
              <circle id="connector7pin" fill="none" stroke-width="1.224" cy="59.0336" gorn="0.0.0.0.0.4.0.0.0.0.7" cx="6.84" connectorname="RED" stroke="black" r="2.052"/>
             </g>
            </g>
            <g gorn="0.0.0.0.0.4.0.0.0.0">
             <rect id="connector0pin" y="6.58857" x="4.788" fill="none" width="4.104" stroke-width="1.224" gorn="0.0.0.0.0.4.0.0.0.0.0" height="4.104" stroke="black"/>
             <circle id="connector1pin" fill="none" stroke-width="1.224" cy="15.8336" gorn="0.0.0.0.0.4.0.0.0.0.1" cx="6.84" connectorname="RED" stroke="black" r="2.052"/>
             <circle id="connector2pin" fill="none" stroke-width="1.224" cy="23.0336" gorn="0.0.0.0.0.4.0.0.0.0.2" cx="6.84" connectorname="RED" stroke="black" r="2.052"/>
             <circle id="connector3pin" fill="none" stroke-width="1.224" cy="30.2336" gorn="0.0.0.0.0.4.0.0.0.0.3" cx="6.84" connectorname="RED" stroke="black" r="2.052"/>
             <circle id="connector4pin" fill="none" stroke-width="1.224" cy="37.4336" gorn="0.0.0.0.0.4.0.0.0.0.4" cx="6.84" connectorname="RED" stroke="black" r="2.052"/>
             <circle id="connector5pin" fill="none" stroke-width="1.224" cy="44.6336" gorn="0.0.0.0.0.4.0.0.0.0.5" cx="6.84" connectorname="RED" stroke="black" r="2.052"/>
             <circle id="connector6pin" fill="none" stroke-width="1.224" cy="51.8336" gorn="0.0.0.0.0.4.0.0.0.0.6" cx="6.84" connectorname="RED" stroke="black" r="2.052"/>
             <circle id="connector7pin" fill="none" stroke-width="1.224" cy="59.0336" gorn="0.0.0.0.0.4.0.0.0.0.7" cx="6.84" connectorname="RED" stroke="black" r="2.052"/>
            </g>
           </g>
          </g>
         </g>
        </g>
       </g>
      </g>
     </g>
    </g>
   </g>
  </g>
 </g>
 <g partID="854557470">
  <g transform="translate(102.198,115.626)">
   <g id="copper0" >
    <circle id="connector0pin" fill="none" cy="3.01733" stroke-width="0.850392" cx="3.01733" stroke="black" r="0.992124" />
   </g>
  </g>
 </g>
 <g partID="854557390">
  <g transform="translate(102.198,108.426)">
   <g id="copper0" >
    <circle id="connector0pin" fill="none" cy="3.01733" stroke-width="0.850392" cx="3.01733" stroke="black" r="0.992124" />
   </g>
  </g>
 </g>
 <g partID="854560220">
  <g transform="translate(145.398,22.0264)">
   <g id="copper0" >
    <circle id="connector0pin" fill="none" cy="3.01733" stroke-width="0.850392" cx="3.01733" stroke="black" r="0.992124" />
   </g>
  </g>
 </g>
 <g partID="854577860">
  <g transform="translate(102.198,22.0264)">
   <g id="copper0" >
    <circle id="connector0pin" fill="none" cy="3.01733" stroke-width="0.850392" cx="3.01733" stroke="black" r="0.992124" />
   </g>
  </g>
 </g>
 <g partID="854577820">
  <g transform="translate(94.9976,22.0264)">
   <g id="copper0" >
    <circle id="connector0pin" fill="none" cy="3.01733" stroke-width="0.850392" cx="3.01733" stroke="black" r="0.992124" />
   </g>
  </g>
 </g>
 <g partID="854577690">
  <g transform="translate(138.198,14.8264)">
   <g id="copper0" >
    <circle id="connector0pin" fill="none" cy="3.01733" stroke-width="0.850392" cx="3.01733" stroke="black" r="0.992124" />
   </g>
  </g>
 </g>
 <g partID="854577750">
  <g transform="translate(145.398,14.8264)">
   <g id="copper0" >
    <circle id="connector0pin" fill="none" cy="3.01733" stroke-width="0.850392" cx="3.01733" stroke="black" r="0.992124" />
   </g>
  </g>
 </g>
 <g partID="854574270">
  <g transform="translate(116.598,22.0264)">
   <g id="copper0" >
    <circle id="connector0pin" fill="none" cy="3.01733" stroke-width="0.850392" cx="3.01733" stroke="black" r="0.992124" />
   </g>
  </g>
 </g>
 <g partID="854557990">
  <g transform="translate(130.998,22.0264)">
   <g id="copper0" >
    <circle id="connector0pin" fill="none" cy="3.01733" stroke-width="0.850392" cx="3.01733" stroke="black" r="0.992124" />
   </g>
  </g>
 </g>
 <g partID="854564030">
  <g transform="translate(210.198,22.0264)">
   <g id="copper0" >
    <circle id="connector0pin" fill="none" cy="3.01733" stroke-width="0.850392" cx="3.01733" stroke="black" r="0.992124" />
   </g>
  </g>
 </g>
 <g partID="854565840">
  <g transform="translate(210.198,29.2264)">
   <g id="copper0" >
    <circle id="connector0pin" fill="none" cy="3.01733" stroke-width="0.850392" cx="3.01733" stroke="black" r="0.992124" />
   </g>
  </g>
 </g>
 <g partID="854562890">
  <g transform="translate(210.198,7.6264)">
   <g id="copper0" >
    <circle id="connector0pin" fill="none" cy="3.01733" stroke-width="0.850392" cx="3.01733" stroke="black" r="0.992124" />
   </g>
  </g>
 </g>
 <g partID="854503900">
  <line x1="54.812" y2="25.1079" stroke-width="1.728" y1="25.128" x2="40.4791" stroke-linecap="round" stroke="black"/>
 </g>
 <g partID="854504050">
  <line x1="54.812" y2="25.1279" stroke-width="1.728" y1="25.128" x2="54.8119" stroke-linecap="round" stroke="black"/>
 </g>
 <g partID="854495060">
  <line x1="90.4142" y2="39.3952" stroke-width="1.728" y1="37.2402" x2="90.8063" stroke-linecap="round" stroke="black"/>
 </g>
 <g partID="854575830">
  <line x1="83.6712" y2="25.128" stroke-width="1.728" y1="39.3952" x2="54.8118" stroke-linecap="round" stroke="black"/>
 </g>
 <g partID="854514150">
  <line x1="90.8064" y2="39.3952" stroke-width="1.728" y1="39.3952" x2="83.6716" stroke-linecap="round" stroke="black"/>
 </g>
 <g partID="854495280">
  <line x1="40.4792" y2="25.1448" stroke-width="1.728" y1="25.108" x2="33.2896" stroke-linecap="round" stroke="black"/>
 </g>
 <g partID="854495170">
  <line x1="33.2896" y2="30.6953" stroke-width="1.728" y1="25.1448" x2="27.6021" stroke-linecap="round" stroke="black"/>
 </g>
 <g partID="854501120">
  <line x1="220.478" y2="133.122" stroke-width="1.728" y1="133.122" x2="220.478" stroke-linecap="round" stroke="black"/>
 </g>
 <g partID="854501190">
  <line x1="220.478" y2="133.122" stroke-width="1.728" y1="133.122" x2="163.877" stroke-linecap="round" stroke="black"/>
 </g>
 <g partID="854500910">
  <line x1="247.114" y2="133.121" stroke-width="1.728" y1="126.376" x2="220.478" stroke-linecap="round" stroke="black"/>
 </g>
 <g partID="854575040">
  <line x1="162.885" y2="104.34" stroke-width="1.728" y1="133.122" x2="112.515" stroke-linecap="round" stroke="black"/>
 </g>
 <g partID="854500980">
  <line x1="163.877" y2="133.122" stroke-width="1.728" y1="133.122" x2="162.884" stroke-linecap="round" stroke="black"/>
 </g>
 <g partID="854501050">
  <line x1="112.515" y2="104.254" stroke-width="1.728" y1="104.339" x2="93.0553" stroke-linecap="round" stroke="black"/>
 </g>
 <g partID="854575680">
  <line x1="83.6712" y2="39.3952" stroke-width="1.728" y1="39.3952" x2="90.806" stroke-linecap="round" stroke="black"/>
 </g>
 <g partID="854514340">
  <line x1="55.2829" y2="39.3955" stroke-width="1.728" y1="117.36" x2="83.6718" stroke-linecap="round" stroke="black"/>
 </g>
 <g partID="854514490">
  <line x1="90.8064" y2="37.2401" stroke-width="1.728" y1="39.3952" x2="90.4142" stroke-linecap="round" stroke="black"/>
 </g>
 <g partID="854519770">
  <line x1="41.3818" y2="25.1077" stroke-width="1.728" y1="26.0106" x2="40.4789" stroke-linecap="round" stroke="black"/>
 </g>
 <g partID="854519990">
  <line x1="40.4792" y2="25.0947" stroke-width="1.728" y1="25.108" x2="33.2527" stroke-linecap="round" stroke="black"/>
 </g>
 <g partID="854519880">
  <line x1="33.2528" y2="30.6855" stroke-width="1.728" y1="25.0944" x2="27.5928" stroke-linecap="round" stroke="black"/>
 </g>
 <g partID="854524380">
  <line x1="162.78" y2="52.1205" stroke-width="1.728" y1="53.8016" x2="161.384" stroke-linecap="round" stroke="black"/>
 </g>
 <g partID="854524240">
  <line x1="162.78" y2="53.8018" stroke-width="1.728" y1="53.8016" x2="162.78" stroke-linecap="round" stroke="black"/>
 </g>
 <g partID="854524170">
  <line x1="134.966" y2="39.4581" stroke-width="1.728" y1="40.345" x2="134.093" stroke-linecap="round" stroke="black"/>
 </g>
 <g partID="854524640">
  <line x1="134.094" y2="53.8468" stroke-width="1.728" y1="39.4584" x2="155.58" stroke-linecap="round" stroke="black"/>
 </g>
 <g partID="854578360">
  <line x1="155.58" y2="53.8018" stroke-width="1.728" y1="53.8472" x2="162.779" stroke-linecap="round" stroke="black"/>
 </g>
 <g partID="854525480">
  <line x1="134.008" y2="66.8771" stroke-width="1.728" y1="40.7381" x2="134.015" stroke-linecap="round" stroke="black"/>
 </g>
 <g partID="854525670">
  <line x1="148.417" y2="82.6762" stroke-width="1.728" y1="69.6109" x2="148.437" stroke-linecap="round" stroke="black"/>
 </g>
 <g partID="854525700">
  <line x1="148.437" y2="88.4182" stroke-width="1.728" y1="82.676" x2="142.651" stroke-linecap="round" stroke="black"/>
 </g>
 <g partID="854526850">
  <line x1="98.0392" y2="82.677" stroke-width="1.728" y1="39.4904" x2="119.633" stroke-linecap="round" stroke="black"/>
 </g>
 <g partID="854526740">
  <line x1="119.633" y2="84.4235" stroke-width="1.728" y1="82.6768" x2="120.581" stroke-linecap="round" stroke="black"/>
 </g>
 <g partID="854526630">
  <line x1="98.648" y2="39.4904" stroke-width="1.728" y1="40.6556" x2="98.0394" stroke-linecap="round" stroke="black"/>
 </g>
 <g partID="854534570">
  <line x1="270.727" y2="54.5591" stroke-width="1.728" y1="53.8976" x2="269.65" stroke-linecap="round" stroke="black"/>
 </g>
 <g partID="854534710">
  <line x1="263.559" y2="53.8976" stroke-width="1.728" y1="46.5864" x2="270.728" stroke-linecap="round" stroke="black"/>
 </g>
 <g partID="854584600">
  <line x1="249.258" y2="46.586" stroke-width="1.728" y1="24.9872" x2="263.559" stroke-linecap="round" stroke="black"/>
 </g>
 <g partID="854534600">
  <line x1="242.026" y2="24.9872" stroke-width="1.728" y1="24.9872" x2="249.258" stroke-linecap="round" stroke="black"/>
 </g>
 <g partID="854584400">
  <line x1="234.796" y2="32.2331" stroke-width="1.728" y1="32.2184" x2="234.853" stroke-linecap="round" stroke="black"/>
 </g>
 <g partID="854561610">
  <line x1="206.113" y2="32.2185" stroke-width="1.728" y1="61.0992" x2="234.796" stroke-linecap="round" stroke="black"/>
 </g>
 <g partID="854554760">
  <line x1="234.853" y2="32.3158" stroke-width="1.728" y1="32.2336" x2="234.897" stroke-linecap="round" stroke="black"/>
 </g>
 <g partID="854547490">
  <line x1="234.897" y2="24.9872" stroke-width="1.728" y1="32.3152" x2="242.027" stroke-linecap="round" stroke="black"/>
 </g>
 <g partID="854534480">
  <line x1="164.681" y2="61.0994" stroke-width="1.728" y1="88.6051" x2="206.113" stroke-linecap="round" stroke="black"/>
 </g>
 <g partID="854555010">
  <line x1="227.564" y2="111.457" stroke-width="1.728" y1="104.174" x2="220.504" stroke-linecap="round" stroke="black"/>
 </g>
 <g partID="854584750">
  <line x1="213.245" y2="118.71" stroke-width="1.728" y1="111.514" x2="206.048" stroke-linecap="round" stroke="black"/>
 </g>
 <g partID="854554980">
  <line x1="220.504" y2="111.514" stroke-width="1.728" y1="111.457" x2="213.245" stroke-linecap="round" stroke="black"/>
 </g>
 <g partID="854584720">
  <line x1="206.048" y2="111.389" stroke-width="1.728" y1="118.71" x2="198.875" stroke-linecap="round" stroke="black"/>
 </g>
 <g partID="854548860">
  <line x1="241.951" y2="104.173" stroke-width="1.728" y1="82.6752" x2="227.564" stroke-linecap="round" stroke="black"/>
 </g>
 <g partID="854548790">
  <line x1="198.875" y2="110.513" stroke-width="1.728" y1="111.388" x2="199.816" stroke-linecap="round" stroke="black"/>
 </g>
 <g partID="854548720">
  <line x1="240.002" y2="82.6752" stroke-width="1.728" y1="83.6265" x2="241.951" stroke-linecap="round" stroke="black"/>
 </g>
 <g partID="854555240">
  <line x1="206.062" y2="75.5252" stroke-width="1.728" y1="89.8576" x2="241.952" stroke-linecap="round" stroke="black"/>
 </g>
 <g partID="854555040">
  <line x1="220.503" y2="89.858" stroke-width="1.728" y1="104.306" x2="206.061" stroke-linecap="round" stroke="black"/>
 </g>
 <g partID="854554880">
  <line x1="206.062" y2="104.306" stroke-width="1.728" y1="89.8576" x2="220.504" stroke-linecap="round" stroke="black"/>
 </g>
 <g partID="854549110">
  <line x1="191.618" y2="104.312" stroke-width="1.728" y1="110.077" x2="191.63" stroke-linecap="round" stroke="black"/>
 </g>
 <g partID="854554910">
  <line x1="241.951" y2="77.2089" stroke-width="1.728" y1="75.5256" x2="240.636" stroke-linecap="round" stroke="black"/>
 </g>
 <g partID="854557180">
  <line x1="213.173" y2="125.785" stroke-width="1.728" y1="125.846" x2="162.768" stroke-linecap="round" stroke="black"/>
 </g>
 <g partID="854552180">
  <line x1="220.455" y2="125.846" stroke-width="1.728" y1="118.564" x2="213.173" stroke-linecap="round" stroke="black"/>
 </g>
 <g partID="854575110">
  <line x1="133.953" y2="69.6106" stroke-width="1.728" y1="96.9704" x2="134.012" stroke-linecap="round" stroke="black"/>
 </g>
 <g partID="854552210">
  <line x1="162.768" y2="96.9707" stroke-width="1.728" y1="125.786" x2="133.953" stroke-linecap="round" stroke="black"/>
 </g>
 <g partID="854552150">
  <line x1="271.293" y2="89.8645" stroke-width="1.728" y1="91.1248" x2="270.823" stroke-linecap="round" stroke="black"/>
 </g>
 <g partID="854566170">
  <line x1="270.822" y2="118.564" stroke-width="1.728" y1="89.864" x2="220.455" stroke-linecap="round" stroke="black"/>
 </g>
 <g partID="854564890">
  <line x1="205.974" y2="32.177" stroke-width="1.728" y1="25.1176" x2="213.198" stroke-linecap="round" stroke="black"/>
 </g>
 <g partID="854564820">
  <line x1="213.198" y2="32.2972" stroke-width="1.728" y1="32.1768" x2="213.198" stroke-linecap="round" stroke="black"/>
 </g>
 <g partID="854552620">
  <line x1="162.78" y2="25.1173" stroke-width="1.728" y1="32.2864" x2="205.974" stroke-linecap="round" stroke="black"/>
 </g>
 <g partID="854581490">
  <line x1="213.199" y2="25.1121" stroke-width="1.728" y1="32.2768" x2="220.364" stroke-linecap="round" stroke="black"/>
 </g>
 <g partID="854581420">
  <line x1="220.363" y2="19.4136" stroke-width="1.728" y1="25.112" x2="226.049" stroke-linecap="round" stroke="black"/>
 </g>
 <g partID="854552690">
  <line x1="213.198" y2="32.2765" stroke-width="1.728" y1="32.2968" x2="213.199" stroke-linecap="round" stroke="black"/>
 </g>
 <g partID="854552550">
  <line x1="161.384" y2="32.2864" stroke-width="1.728" y1="33.9675" x2="162.78" stroke-linecap="round" stroke="black"/>
 </g>
 <g partID="854554350">
  <line x1="269.847" y2="68.2406" stroke-width="1.728" y1="74.4791" x2="263.586" stroke-linecap="round" stroke="black"/>
 </g>
 <g partID="854584690">
  <line x1="263.586" y2="46.6806" stroke-width="1.728" y1="68.24" x2="249.258" stroke-linecap="round" stroke="black"/>
 </g>
 <g partID="854554470">
  <line x1="249.258" y2="46.6808" stroke-width="1.728" y1="46.6808" x2="242.026" stroke-linecap="round" stroke="black"/>
 </g>
 <g partID="854561520">
  <line x1="206.113" y2="110.206" stroke-width="1.728" y1="82.7448" x2="164.682" stroke-linecap="round" stroke="black"/>
 </g>
 <g partID="854554440">
  <line x1="242.026" y2="82.7447" stroke-width="1.728" y1="46.6808" x2="206.112" stroke-linecap="round" stroke="black"/>
 </g>
 <g partID="854584630">
  <line x1="249.258" y2="53.7778" stroke-width="1.728" y1="32.2184" x2="263.586" stroke-linecap="round" stroke="black"/>
 </g>
 <g partID="854554380">
  <line x1="242.026" y2="32.2184" stroke-width="1.728" y1="32.2184" x2="249.258" stroke-linecap="round" stroke="black"/>
 </g>
 <g partID="854584490">
  <line x1="263.586" y2="60.075" stroke-width="1.728" y1="53.7784" x2="269.851" stroke-linecap="round" stroke="black"/>
 </g>
 <g partID="854561580">
  <line x1="206.113" y2="32.2185" stroke-width="1.728" y1="68.2376" x2="242.027" stroke-linecap="round" stroke="black"/>
 </g>
 <g partID="854534450">
  <line x1="164.68" y2="68.2378" stroke-width="1.728" y1="95.8032" x2="206.113" stroke-linecap="round" stroke="black"/>
 </g>
 <g partID="854584660">
  <line x1="263.586" y2="67.2771" stroke-width="1.728" y1="61.0096" x2="269.849" stroke-linecap="round" stroke="black"/>
 </g>
 <g partID="854554410">
  <line x1="249.258" y2="61.009" stroke-width="1.728" y1="39.4496" x2="263.586" stroke-linecap="round" stroke="black"/>
 </g>
 <g partID="854584520">
  <line x1="242.026" y2="39.4496" stroke-width="1.728" y1="39.4496" x2="249.258" stroke-linecap="round" stroke="black"/>
 </g>
 <g partID="854561550">
  <line x1="206.113" y2="39.4496" stroke-width="1.728" y1="75.376" x2="242.027" stroke-linecap="round" stroke="black"/>
 </g>
 <g partID="854534420">
  <line x1="164.679" y2="75.3762" stroke-width="1.728" y1="103.001" x2="206.113" stroke-linecap="round" stroke="black"/>
 </g>
 <g partID="854533990">
  <line x1="244.188" y2="82.9755" stroke-width="1.728" y1="89.3007" x2="269.489" stroke-linecap="round" stroke="black"/>
 </g>
 <g partID="854574000">
  <line x1="26.044" y2="10.7541" stroke-width="1.728" y1="10.6728" x2="40.5121" stroke-linecap="round" stroke="black"/>
 </g>
 <g partID="854558880">
  <line x1="4.4568" y2="10.6734" stroke-width="1.728" y1="32.2608" x2="26.0442" stroke-linecap="round" stroke="black"/>
 </g>
 <g partID="854558980">
  <line x1="90.7624" y2="24.6141" stroke-width="1.728" y1="10.7184" x2="132.718" stroke-linecap="round" stroke="black"/>
 </g>
 <g partID="854558930">
  <line x1="40.5128" y2="10.7184" stroke-width="1.728" y1="10.7544" x2="90.7628" stroke-linecap="round" stroke="black"/>
 </g>
 <g partID="854558850">
  <line x1="4.288" y2="32.2602" stroke-width="1.728" y1="82.6872" x2="4.45663" stroke-linecap="round" stroke="black"/>
 </g>
 <g partID="854558820">
  <line x1="10.0692" y2="82.6873" stroke-width="1.728" y1="88.3234" x2="4.28808" stroke-linecap="round" stroke="black"/>
 </g>
 <g partID="854561230">
  <line x1="148.847" y2="45.3472" stroke-width="1.728" y1="26.3408" x2="155.183" stroke-linecap="round" stroke="black"/>
 </g>
 <g partID="854565860">
  <line x1="212.804" y2="32.2884" stroke-width="1.728" y1="33.5475" x2="213.201" stroke-linecap="round" stroke="black"/>
 </g>
 <g partID="854581280">
  <line x1="213.199" y2="25.1121" stroke-width="1.728" y1="32.2768" x2="220.364" stroke-linecap="round" stroke="black"/>
 </g>
 <g partID="854581350">
  <line x1="220.363" y2="19.4136" stroke-width="1.728" y1="25.112" x2="226.049" stroke-linecap="round" stroke="black"/>
 </g>
 <g partID="854565930">
  <line x1="213.201" y2="32.2772" stroke-width="1.728" y1="32.2888" x2="213.198" stroke-linecap="round" stroke="black"/>
 </g>
 <g partID="854583450">
  <line x1="191.63" y2="89.8577" stroke-width="1.728" y1="104.311" x2="206.061" stroke-linecap="round" stroke="black"/>
 </g>
 <g partID="854583480">
  <line x1="198.875" y2="111.388" stroke-width="1.728" y1="111.389" x2="198.875" stroke-linecap="round" stroke="black"/>
 </g>
</svg>
