G04*
G04 GERBER (RE)GENERATED BY FLATCAM v8.994 - www.flatcam.org - Version Date: 2020/11/7*
G04 Filename: PCB_maskTop.gts_edit_2*
G04 Created on : Wednesday, 24 March 2021 at 08:24*
G04*
G04 RS-274X GERBER GENERATED BY FLATCAM v8.994 - www.flatcam.org - Version Date: 2020/11/7*
G04 Filename: PCB_maskTop.gts_edit_2*
G04 Created on : Wednesday, 24 March 2021 at 08:24*
%FSLAX24Y24*%
%MOIN*%
%ADD10C,0.083999832*%
%ADD11C,0.087999824*%
%ADD12C,0.085666828666*%
%ADD13C,0.08569482860999998*%
%ADD14C,0.04936990126*%
%ADD15R,0.087999824X0.087999824*%
%ADD16R,0.085666828666X0.085666828666*%
%ADD17R,0.083999832X0.083999832*%
%ADD18R,0.000999998X0.000999998*%
%ADD19C,0.07874*%

G70*
G90*
G01*
%LPD*%
D10*
X22610Y15210D03*
X22610Y14210D03*
X22610Y13210D03*
X22610Y12210D03*
X22610Y11210D03*
X22610Y10210D03*
X22610Y09210D03*
X22610Y08210D03*
X22610Y07210D03*
X22610Y06210D03*
X22610Y05210D03*
X22610Y04210D03*
X28610Y04210D03*
X28610Y05210D03*
X28610Y06210D03*
X28610Y07210D03*
X28610Y08210D03*
X28610Y09210D03*
X28610Y10210D03*
X28610Y11210D03*
X28610Y12210D03*
X28610Y13210D03*
X28610Y14210D03*
X28610Y15210D03*
X22610Y15210D03*
X22610Y14210D03*
X22610Y13210D03*
X22610Y12210D03*
X22610Y11210D03*
X22610Y10210D03*
X22610Y09210D03*
X22610Y08210D03*
X22610Y07210D03*
X22610Y06210D03*
X22610Y05210D03*
X22610Y04210D03*
X28610Y04210D03*
X28610Y05210D03*
X28610Y06210D03*
X28610Y07210D03*
X28610Y08210D03*
X28610Y09210D03*
X28610Y10210D03*
X28610Y11210D03*
X28610Y12210D03*
X28610Y13210D03*
X28610Y14210D03*
X28610Y15210D03*
X03610Y14210D03*
X03610Y15210D03*
X03610Y16210D03*
X03610Y14210D03*
X03610Y15210D03*
X03610Y16210D03*
X31610Y15210D03*
X31610Y16210D03*
X31610Y17210D03*
X31610Y15210D03*
X31610Y16210D03*
X31610Y17210D03*
X06610Y15210D03*
X06610Y14210D03*
X06610Y13210D03*
X06610Y12210D03*
X06610Y11210D03*
X06610Y10210D03*
X06610Y09210D03*
X06610Y08210D03*
X06610Y07210D03*
X06610Y06210D03*
X06610Y05210D03*
X06610Y04210D03*
X12610Y04210D03*
X12610Y05210D03*
X12610Y06210D03*
X12610Y07210D03*
X12610Y08210D03*
X12610Y09210D03*
X12610Y10210D03*
X12610Y11210D03*
X12610Y12210D03*
X12610Y13210D03*
X12610Y14210D03*
X12610Y15210D03*
X06610Y15210D03*
X06610Y14210D03*
X06610Y13210D03*
X06610Y12210D03*
X06610Y11210D03*
X06610Y10210D03*
X06610Y09210D03*
X06610Y08210D03*
X06610Y07210D03*
X06610Y06210D03*
X06610Y05210D03*
X06610Y04210D03*
X12610Y04210D03*
X12610Y05210D03*
X12610Y06210D03*
X12610Y07210D03*
X12610Y08210D03*
X12610Y09210D03*
X12610Y10210D03*
X12610Y11210D03*
X12610Y12210D03*
X12610Y13210D03*
X12610Y14210D03*
X12610Y15210D03*
X33610Y07210D03*
X33610Y08210D03*
X33610Y09210D03*
X33610Y10210D03*
X33610Y11210D03*
X33610Y12210D03*
X33610Y13210D03*
X33610Y07210D03*
X33610Y08210D03*
X33610Y09210D03*
X33610Y10210D03*
X33610Y11210D03*
X33610Y12210D03*
X33610Y13210D03*
D11*
X01610Y05210D03*
X01610Y06210D03*
X01610Y07210D03*
X01610Y08210D03*
X01610Y09210D03*
X01610Y10210D03*
X01610Y11210D03*
X34610Y04210D03*
X34610Y03210D03*
X34610Y02210D03*
D12*
X19610Y07210D03*
X16620Y07210D03*
X16610Y12210D03*
X19600Y12210D03*
D13*
X19610Y08210D03*
X16610Y08210D03*
X16610Y11210D03*
X19610Y11210D03*
D14*
X15610Y12210D03*
X13610Y15210D03*
X05610Y13210D03*
X18610Y14220D03*
X13610Y14210D03*
X13610Y12210D03*
X07610Y03210D03*
X12610Y03210D03*
X06610Y03210D03*
X05610Y17210D03*
X13610Y04210D03*
X05610Y16210D03*
X21610Y13210D03*
X30610Y03210D03*
X29610Y03210D03*
X27610Y03210D03*
X30610Y06210D03*
X26610Y03210D03*
X25610Y03210D03*
X30610Y05210D03*
X30610Y04210D03*
X26610Y04210D03*
X27610Y04210D03*
X37610Y13210D03*
X37610Y07210D03*
X37610Y11210D03*
X37610Y10210D03*
X37610Y09210D03*
X37610Y06210D03*
X37610Y12210D03*
X37610Y08210D03*
X21610Y14210D03*
X20610Y10210D03*
X18610Y10210D03*
X14610Y03210D03*
X14610Y04210D03*
X20610Y16210D03*
X14610Y16210D03*
X13610Y16210D03*
X19610Y17210D03*
X20610Y17210D03*
X16610Y16210D03*
X18610Y16210D03*
X29610Y16210D03*
X29610Y15210D03*
X29610Y18210D03*
D15*
X34610Y04210D03*
D16*
X19610Y07210D03*
X16610Y12210D03*
D17*
X33610Y06210D03*
X33610Y06210D03*
D18*
X32020Y15630D03*
X32020Y15620D03*
X32020Y15610D03*
X32020Y15600D03*
X32020Y15590D03*
X32020Y15580D03*
X32020Y15570D03*
X32020Y15560D03*
X32020Y15550D03*
X32020Y15540D03*
X32020Y15530D03*
X32020Y15520D03*
X32020Y15510D03*
X32020Y15500D03*
X32020Y15490D03*
X32020Y15480D03*
X32020Y15470D03*
X32020Y15460D03*
X32020Y15450D03*
X32020Y15440D03*
X32020Y15430D03*
X32020Y15420D03*
X32020Y15410D03*
X32020Y15400D03*
X32020Y15390D03*
X32020Y15380D03*
X32020Y15370D03*
X31570Y15360D03*
X32020Y15360D03*
X31540Y15350D03*
X32020Y15350D03*
X31520Y15340D03*
X32020Y15340D03*
X31510Y15330D03*
X32020Y15330D03*
X31500Y15320D03*
X32020Y15320D03*
X31490Y15310D03*
X32020Y15310D03*
X31480Y15300D03*
X32020Y15300D03*
X31480Y15290D03*
X32020Y15290D03*
X31470Y15280D03*
X32020Y15280D03*
X31470Y15270D03*
X32020Y15270D03*
X31460Y15260D03*
X32020Y15260D03*
X31460Y15250D03*
X32020Y15250D03*
X31460Y15240D03*
X32020Y15240D03*
X31460Y15230D03*
X32020Y15230D03*
X31460Y15220D03*
X32020Y15220D03*
X31460Y15210D03*
X32020Y15210D03*
X31460Y15200D03*
X32020Y15200D03*
X31460Y15190D03*
X32020Y15190D03*
X31460Y15180D03*
X32020Y15180D03*
X31460Y15170D03*
X32020Y15170D03*
X31470Y15160D03*
X32020Y15160D03*
X31470Y15150D03*
X32020Y15150D03*
X31480Y15140D03*
X32020Y15140D03*
X31490Y15130D03*
X32020Y15130D03*
X31490Y15120D03*
X32020Y15120D03*
X31500Y15110D03*
X32020Y15110D03*
X31520Y15100D03*
X32020Y15100D03*
X31530Y15090D03*
X32020Y15090D03*
X31550Y15080D03*
X32020Y15080D03*
X32020Y15070D03*
X32020Y15060D03*
X32020Y15050D03*
X32020Y15040D03*
X32020Y15030D03*
X32020Y15020D03*
X32020Y15010D03*
X32020Y15000D03*
X32020Y14990D03*
X32020Y14980D03*
X32020Y14970D03*
X32020Y14960D03*
X32020Y14950D03*
X32020Y14940D03*
X32020Y14930D03*
X32020Y14920D03*
X32020Y14910D03*
X32020Y14900D03*
X32020Y14890D03*
X32020Y14880D03*
X32020Y14870D03*
X32020Y14860D03*
X32020Y14850D03*
X32020Y14840D03*
X32020Y14830D03*
X32020Y14820D03*
X32020Y14810D03*
X32020Y14800D03*
X04020Y14630D03*
X04020Y14620D03*
X04020Y14610D03*
X04020Y14600D03*
X04020Y14590D03*
X04020Y14580D03*
X04020Y14570D03*
X04020Y14560D03*
X04020Y14550D03*
X04020Y14540D03*
X04020Y14530D03*
X04020Y14520D03*
X04020Y14510D03*
X04020Y14500D03*
X04020Y14490D03*
X04020Y14480D03*
X04020Y14470D03*
X04020Y14460D03*
X04020Y14450D03*
X04020Y14440D03*
X04020Y14430D03*
X04020Y14420D03*
X04020Y14410D03*
X04020Y14400D03*
X04020Y14390D03*
X04020Y14380D03*
X04020Y14370D03*
X03570Y14360D03*
X04020Y14360D03*
X03540Y14350D03*
X04020Y14350D03*
X03520Y14340D03*
X04020Y14340D03*
X03510Y14330D03*
X04020Y14330D03*
X03500Y14320D03*
X04020Y14320D03*
X03490Y14310D03*
X04020Y14310D03*
X03480Y14300D03*
X04020Y14300D03*
X03480Y14290D03*
X04020Y14290D03*
X03470Y14280D03*
X04020Y14280D03*
X03470Y14270D03*
X04020Y14270D03*
X03460Y14260D03*
X04020Y14260D03*
X03460Y14250D03*
X04020Y14250D03*
X03460Y14240D03*
X04020Y14240D03*
X03460Y14230D03*
X04020Y14230D03*
X03460Y14220D03*
X04020Y14220D03*
X03460Y14210D03*
X04020Y14210D03*
X03460Y14200D03*
X04020Y14200D03*
X03460Y14190D03*
X04020Y14190D03*
X03460Y14180D03*
X04020Y14180D03*
X03460Y14170D03*
X04020Y14170D03*
X03470Y14160D03*
X04020Y14160D03*
X03470Y14150D03*
X04020Y14150D03*
X03480Y14140D03*
X04020Y14140D03*
X03490Y14130D03*
X04020Y14130D03*
X03490Y14120D03*
X04020Y14120D03*
X03500Y14110D03*
X04020Y14110D03*
X03520Y14100D03*
X04020Y14100D03*
X03530Y14090D03*
X04020Y14090D03*
X03550Y14080D03*
X04020Y14080D03*
X04020Y14070D03*
X04020Y14060D03*
X04020Y14050D03*
X04020Y14040D03*
X04020Y14030D03*
X04020Y14020D03*
X04020Y14010D03*
X04020Y14000D03*
X04020Y13990D03*
X04020Y13980D03*
X04020Y13970D03*
X04020Y13960D03*
X04020Y13950D03*
X04020Y13940D03*
X04020Y13930D03*
X04020Y13920D03*
X04020Y13910D03*
X04020Y13900D03*
X04020Y13890D03*
X04020Y13880D03*
X04020Y13870D03*
X04020Y13860D03*
X04020Y13850D03*
X04020Y13840D03*
X04020Y13830D03*
X04020Y13820D03*
X04020Y13810D03*
X04020Y13800D03*
D19*
X13607Y16210D03*
X14609Y16214D03*
X13612Y15208D03*
X13613Y14207D03*
X13608Y12210D03*
X15609Y12214D03*
X13611Y10206D03*
X13613Y04209D03*
X14613Y04212D03*
X14613Y03209D03*
X12607Y03209D03*
X06608Y03208D03*
X07610Y03212D03*
X05611Y13210D03*
X05612Y17210D03*
X05608Y16214D03*
X16613Y16211D03*
X18612Y16210D03*
X18610Y14219D03*
X18609Y10210D03*
X20610Y10210D03*
X19610Y17208D03*
X20612Y17206D03*
X20609Y16211D03*
X21611Y14207D03*
X21608Y13212D03*
X22608Y16189D03*
X29606Y18209D03*
X29609Y16210D03*
X29609Y15211D03*
X25610Y03210D03*
X27609Y04208D03*
X26611Y04208D03*
X26608Y03213D03*
X27608Y03210D03*
X30611Y06214D03*
X30610Y05210D03*
X30610Y04209D03*
X30609Y03211D03*
X29609Y03212D03*
X37607Y13209D03*
X37608Y12207D03*
X37609Y11209D03*
X37614Y10210D03*
X37609Y09210D03*
X37609Y08210D03*
X37609Y07210D03*
X37610Y06210D03*
M02*
