G04 MADE WITH FRITZING*
G04 WWW.FRITZING.ORG*
G04 DOUBLE SIDED*
G04 HOLES PLATED*
G04 CONTOUR ON CENTER OF CONTOUR VECTOR*
%ASAXBY*%
%FSLAX23Y23*%
%MOIN*%
%OFA0B0*%
%SFA1.0B1.0*%
%ADD10C,0.074000*%
%ADD11C,0.078000*%
%ADD12C,0.075667*%
%ADD13C,0.075695*%
%ADD14C,0.039370*%
%ADD15R,0.078000X0.078000*%
%ADD16R,0.075667X0.075667*%
%ADD17R,0.074000X0.074000*%
%ADD18C,0.024000*%
%ADD19R,0.001000X0.001000*%
%LNCOPPER0*%
G90*
G70*
G54D10*
X2311Y1621D03*
X2411Y1621D03*
X2511Y1621D03*
X2611Y1621D03*
X2711Y1621D03*
X2811Y1621D03*
X2261Y1521D03*
X2261Y1421D03*
X2261Y1321D03*
X2261Y1221D03*
X2261Y1121D03*
X2376Y1176D03*
X2376Y1076D03*
X2261Y1021D03*
X2261Y921D03*
X2261Y821D03*
X2261Y721D03*
X2261Y621D03*
X2261Y521D03*
X2261Y421D03*
X2861Y421D03*
X2861Y521D03*
X2861Y621D03*
X2861Y721D03*
X2861Y821D03*
X2861Y921D03*
X2861Y1021D03*
X2861Y1121D03*
X2861Y1221D03*
X2861Y1321D03*
X2861Y1421D03*
X2861Y1521D03*
X2311Y1621D03*
X2411Y1621D03*
X2511Y1621D03*
X2611Y1621D03*
X2711Y1621D03*
X2811Y1621D03*
X2261Y1521D03*
X2261Y1421D03*
X2261Y1321D03*
X2261Y1221D03*
X2261Y1121D03*
X2376Y1176D03*
X2376Y1076D03*
X2261Y1021D03*
X2261Y921D03*
X2261Y821D03*
X2261Y721D03*
X2261Y621D03*
X2261Y521D03*
X2261Y421D03*
X2861Y421D03*
X2861Y521D03*
X2861Y621D03*
X2861Y721D03*
X2861Y821D03*
X2861Y921D03*
X2861Y1021D03*
X2861Y1121D03*
X2861Y1221D03*
X2861Y1321D03*
X2861Y1421D03*
X2861Y1521D03*
G54D11*
X161Y521D03*
X161Y621D03*
X161Y721D03*
X161Y821D03*
X161Y921D03*
X161Y1021D03*
X161Y1121D03*
G54D10*
X361Y1421D03*
X361Y1521D03*
X361Y1621D03*
X3161Y1521D03*
X3161Y1621D03*
X3161Y1721D03*
G54D11*
X3461Y421D03*
X3461Y321D03*
X3461Y221D03*
G54D12*
X1961Y721D03*
X1662Y721D03*
G54D13*
X1961Y821D03*
X1661Y821D03*
G54D12*
X1661Y1221D03*
X1960Y1221D03*
G54D13*
X1661Y1121D03*
X1961Y1121D03*
G54D14*
X1561Y1221D03*
X1361Y1521D03*
X561Y1321D03*
X1861Y1422D03*
X1361Y1421D03*
X1361Y1221D03*
X761Y321D03*
X1261Y321D03*
X661Y321D03*
X561Y1721D03*
X1361Y421D03*
X561Y1621D03*
G54D10*
X711Y1621D03*
X811Y1621D03*
X911Y1621D03*
X1011Y1621D03*
X1111Y1621D03*
X1211Y1621D03*
X661Y1521D03*
X661Y1421D03*
X661Y1321D03*
X661Y1221D03*
X661Y1121D03*
X776Y1176D03*
X776Y1076D03*
X661Y1021D03*
X661Y921D03*
X661Y821D03*
X661Y721D03*
X661Y621D03*
X661Y521D03*
X661Y421D03*
X1261Y421D03*
X1261Y521D03*
X1261Y621D03*
X1261Y721D03*
X1261Y821D03*
X1261Y921D03*
X1261Y1021D03*
X1261Y1121D03*
X1261Y1221D03*
X1261Y1321D03*
X1261Y1421D03*
X1261Y1521D03*
X711Y1621D03*
X811Y1621D03*
X911Y1621D03*
X1011Y1621D03*
X1111Y1621D03*
X1211Y1621D03*
X661Y1521D03*
X661Y1421D03*
X661Y1321D03*
X661Y1221D03*
X661Y1121D03*
X776Y1176D03*
X776Y1076D03*
X661Y1021D03*
X661Y921D03*
X661Y821D03*
X661Y721D03*
X661Y621D03*
X661Y521D03*
X661Y421D03*
X1261Y421D03*
X1261Y521D03*
X1261Y621D03*
X1261Y721D03*
X1261Y821D03*
X1261Y921D03*
X1261Y1021D03*
X1261Y1121D03*
X1261Y1221D03*
X1261Y1321D03*
X1261Y1421D03*
X1261Y1521D03*
G54D14*
X2161Y1321D03*
X3061Y321D03*
X2961Y321D03*
X2761Y321D03*
X3061Y621D03*
X2661Y321D03*
X2561Y321D03*
X3061Y521D03*
X3061Y421D03*
X2661Y421D03*
X2761Y421D03*
X3761Y1321D03*
X3761Y721D03*
X3761Y1121D03*
X3761Y1021D03*
X3761Y921D03*
X3761Y621D03*
X3761Y1221D03*
X3761Y821D03*
X2161Y1421D03*
X2061Y1021D03*
X1861Y1021D03*
X1361Y921D03*
G54D10*
X3361Y721D03*
X3361Y821D03*
X3361Y921D03*
X3361Y1021D03*
X3361Y1121D03*
X3361Y1221D03*
X3361Y1321D03*
X3361Y721D03*
X3361Y821D03*
X3361Y921D03*
X3361Y1021D03*
X3361Y1121D03*
X3361Y1221D03*
X3361Y1321D03*
G54D14*
X1461Y321D03*
X1461Y421D03*
X2061Y1621D03*
X1461Y1621D03*
X1361Y1621D03*
X1961Y1721D03*
X2061Y1721D03*
X1661Y1621D03*
X1861Y1621D03*
X2961Y1621D03*
X2961Y1521D03*
X2961Y1821D03*
G54D15*
X3461Y421D03*
G54D16*
X1961Y721D03*
X1661Y1221D03*
G54D17*
X3361Y621D03*
X3361Y621D03*
G54D18*
X761Y1620D02*
X562Y1620D01*
D02*
X761Y1620D02*
X761Y1620D01*
D02*
X1256Y1451D02*
X1261Y1421D01*
D02*
X1162Y1421D02*
X761Y1620D01*
D02*
X1261Y1421D02*
X1162Y1421D01*
D02*
X562Y1620D02*
X462Y1619D01*
D02*
X462Y1619D02*
X383Y1542D01*
D02*
X3062Y120D02*
X3062Y120D01*
D02*
X3062Y120D02*
X2276Y120D01*
D02*
X3432Y213D02*
X3062Y120D01*
D02*
X2262Y120D02*
X1563Y519D01*
D02*
X2276Y120D02*
X2262Y120D01*
D02*
X1563Y519D02*
X1292Y521D01*
D02*
X1162Y1421D02*
X1261Y1421D01*
D02*
X768Y339D02*
X1162Y1421D01*
D02*
X1261Y1421D02*
X1256Y1451D01*
D02*
X575Y1607D02*
X562Y1620D01*
D02*
X562Y1620D02*
X462Y1620D01*
D02*
X462Y1620D02*
X383Y1542D01*
D02*
X2261Y1221D02*
X2241Y1245D01*
D02*
X2261Y1221D02*
X2261Y1221D01*
D02*
X1875Y1408D02*
X1862Y1420D01*
D02*
X1862Y1420D02*
X2161Y1221D01*
D02*
X2161Y1221D02*
X2261Y1221D01*
D02*
X1861Y1403D02*
X1861Y1040D01*
D02*
X2061Y1002D02*
X2062Y820D01*
D02*
X2062Y820D02*
X1981Y740D01*
D02*
X1362Y1420D02*
X1662Y820D01*
D02*
X1662Y820D02*
X1675Y796D01*
D02*
X1370Y1404D02*
X1362Y1420D01*
D02*
X3760Y1220D02*
X3745Y1211D01*
D02*
X3661Y1321D02*
X3760Y1220D01*
D02*
X3462Y1621D02*
X3661Y1321D01*
D02*
X3361Y1621D02*
X3462Y1621D01*
D02*
X3261Y1521D02*
X3262Y1521D01*
D02*
X2863Y1120D02*
X3261Y1521D01*
D02*
X3262Y1521D02*
X3262Y1520D01*
D02*
X3262Y1520D02*
X3361Y1621D01*
D02*
X2287Y738D02*
X2863Y1120D01*
D02*
X3161Y522D02*
X3063Y420D01*
D02*
X2962Y420D02*
X2862Y320D01*
D02*
X3063Y420D02*
X2962Y420D01*
D02*
X2862Y320D02*
X2762Y421D01*
D02*
X3360Y820D02*
X3161Y522D01*
D02*
X2762Y421D02*
X2775Y434D01*
D02*
X3333Y807D02*
X3360Y820D01*
D02*
X2862Y720D02*
X3360Y920D01*
D02*
X3063Y520D02*
X2862Y720D01*
D02*
X2862Y720D02*
X3063Y520D01*
D02*
X2661Y440D02*
X2662Y520D01*
D02*
X3360Y920D02*
X3342Y896D01*
D02*
X2961Y221D02*
X2261Y221D01*
D02*
X3062Y322D02*
X2961Y221D01*
D02*
X1860Y622D02*
X1861Y1002D01*
D02*
X2261Y221D02*
X1860Y622D01*
D02*
X3768Y703D02*
X3761Y720D01*
D02*
X3761Y720D02*
X3062Y322D01*
D02*
X2861Y1620D02*
X2961Y1522D01*
D02*
X2961Y1522D02*
X2961Y1520D01*
D02*
X2261Y1520D02*
X2861Y1620D01*
D02*
X2961Y1520D02*
X3061Y1620D01*
D02*
X3061Y1620D02*
X3140Y1699D01*
D02*
X2961Y1520D02*
X2961Y1520D01*
D02*
X2241Y1497D02*
X2261Y1520D01*
D02*
X3748Y934D02*
X3661Y1021D01*
D02*
X3661Y1021D02*
X3462Y1320D01*
D02*
X3462Y1320D02*
X3361Y1320D01*
D02*
X2863Y819D02*
X2287Y438D01*
D02*
X3361Y1320D02*
X2863Y819D01*
D02*
X3462Y1521D02*
X3661Y1222D01*
D02*
X3361Y1521D02*
X3462Y1521D01*
D02*
X3661Y1222D02*
X3748Y1134D01*
D02*
X2863Y1021D02*
X3361Y1521D01*
D02*
X2287Y638D02*
X2863Y1021D01*
D02*
X3661Y1121D02*
X3748Y1034D01*
D02*
X3462Y1421D02*
X3661Y1121D01*
D02*
X3361Y1421D02*
X3462Y1421D01*
D02*
X2863Y922D02*
X3361Y1421D01*
D02*
X2287Y538D02*
X2863Y922D01*
D02*
X3392Y728D02*
X3743Y816D01*
D02*
X362Y1820D02*
X563Y1819D01*
D02*
X62Y1520D02*
X362Y1820D01*
D02*
X1261Y1820D02*
X1843Y1627D01*
D02*
X563Y1819D02*
X1261Y1820D01*
D02*
X60Y820D02*
X62Y1520D01*
D02*
X140Y742D02*
X60Y820D01*
D02*
X2067Y1603D02*
X2155Y1339D01*
D02*
X2956Y1503D02*
X2961Y1520D01*
D02*
X2961Y1520D02*
X3061Y1620D01*
D02*
X3061Y1620D02*
X3140Y1699D01*
D02*
X2961Y1520D02*
X2961Y1520D01*
D02*
X2662Y520D02*
X2862Y720D01*
D02*
X2762Y421D02*
X2762Y421D01*
G54D19*
X3124Y1558D02*
X3197Y1558D01*
X3124Y1557D02*
X3197Y1557D01*
X3124Y1556D02*
X3197Y1556D01*
X3124Y1555D02*
X3197Y1555D01*
X3124Y1554D02*
X3197Y1554D01*
X3124Y1553D02*
X3197Y1553D01*
X3124Y1552D02*
X3197Y1552D01*
X3124Y1551D02*
X3197Y1551D01*
X3124Y1550D02*
X3197Y1550D01*
X3124Y1549D02*
X3197Y1549D01*
X3124Y1548D02*
X3197Y1548D01*
X3124Y1547D02*
X3197Y1547D01*
X3124Y1546D02*
X3197Y1546D01*
X3124Y1545D02*
X3197Y1545D01*
X3124Y1544D02*
X3197Y1544D01*
X3124Y1543D02*
X3197Y1543D01*
X3124Y1542D02*
X3197Y1542D01*
X3124Y1541D02*
X3156Y1541D01*
X3165Y1541D02*
X3197Y1541D01*
X3124Y1540D02*
X3153Y1540D01*
X3169Y1540D02*
X3197Y1540D01*
X3124Y1539D02*
X3151Y1539D01*
X3171Y1539D02*
X3197Y1539D01*
X3124Y1538D02*
X3149Y1538D01*
X3172Y1538D02*
X3197Y1538D01*
X3124Y1537D02*
X3148Y1537D01*
X3174Y1537D02*
X3197Y1537D01*
X3124Y1536D02*
X3147Y1536D01*
X3175Y1536D02*
X3197Y1536D01*
X3124Y1535D02*
X3146Y1535D01*
X3176Y1535D02*
X3197Y1535D01*
X3124Y1534D02*
X3145Y1534D01*
X3177Y1534D02*
X3197Y1534D01*
X3124Y1533D02*
X3144Y1533D01*
X3177Y1533D02*
X3197Y1533D01*
X3124Y1532D02*
X3144Y1532D01*
X3178Y1532D02*
X3197Y1532D01*
X3124Y1531D02*
X3143Y1531D01*
X3179Y1531D02*
X3197Y1531D01*
X3124Y1530D02*
X3142Y1530D01*
X3179Y1530D02*
X3197Y1530D01*
X3124Y1529D02*
X3142Y1529D01*
X3180Y1529D02*
X3197Y1529D01*
X3124Y1528D02*
X3142Y1528D01*
X3180Y1528D02*
X3197Y1528D01*
X3124Y1527D02*
X3141Y1527D01*
X3180Y1527D02*
X3197Y1527D01*
X3124Y1526D02*
X3141Y1526D01*
X3181Y1526D02*
X3197Y1526D01*
X3124Y1525D02*
X3141Y1525D01*
X3181Y1525D02*
X3197Y1525D01*
X3124Y1524D02*
X3141Y1524D01*
X3181Y1524D02*
X3197Y1524D01*
X3124Y1523D02*
X3141Y1523D01*
X3181Y1523D02*
X3197Y1523D01*
X3124Y1522D02*
X3141Y1522D01*
X3181Y1522D02*
X3197Y1522D01*
X3124Y1521D02*
X3141Y1521D01*
X3181Y1521D02*
X3197Y1521D01*
X3124Y1520D02*
X3141Y1520D01*
X3181Y1520D02*
X3197Y1520D01*
X3124Y1519D02*
X3141Y1519D01*
X3181Y1519D02*
X3197Y1519D01*
X3124Y1518D02*
X3141Y1518D01*
X3181Y1518D02*
X3197Y1518D01*
X3124Y1517D02*
X3141Y1517D01*
X3180Y1517D02*
X3197Y1517D01*
X3124Y1516D02*
X3142Y1516D01*
X3180Y1516D02*
X3197Y1516D01*
X3124Y1515D02*
X3142Y1515D01*
X3180Y1515D02*
X3197Y1515D01*
X3124Y1514D02*
X3142Y1514D01*
X3179Y1514D02*
X3197Y1514D01*
X3124Y1513D02*
X3143Y1513D01*
X3179Y1513D02*
X3197Y1513D01*
X3124Y1512D02*
X3143Y1512D01*
X3178Y1512D02*
X3197Y1512D01*
X3124Y1511D02*
X3144Y1511D01*
X3178Y1511D02*
X3197Y1511D01*
X3124Y1510D02*
X3145Y1510D01*
X3177Y1510D02*
X3197Y1510D01*
X3124Y1509D02*
X3145Y1509D01*
X3176Y1509D02*
X3197Y1509D01*
X3124Y1508D02*
X3146Y1508D01*
X3175Y1508D02*
X3197Y1508D01*
X3124Y1507D02*
X3147Y1507D01*
X3174Y1507D02*
X3197Y1507D01*
X3124Y1506D02*
X3149Y1506D01*
X3173Y1506D02*
X3197Y1506D01*
X3124Y1505D02*
X3150Y1505D01*
X3171Y1505D02*
X3197Y1505D01*
X3124Y1504D02*
X3152Y1504D01*
X3170Y1504D02*
X3197Y1504D01*
X3124Y1503D02*
X3155Y1503D01*
X3167Y1503D02*
X3197Y1503D01*
X3124Y1502D02*
X3197Y1502D01*
X3124Y1501D02*
X3197Y1501D01*
X3124Y1500D02*
X3197Y1500D01*
X3124Y1499D02*
X3197Y1499D01*
X3124Y1498D02*
X3197Y1498D01*
X3124Y1497D02*
X3197Y1497D01*
X3124Y1496D02*
X3197Y1496D01*
X3124Y1495D02*
X3197Y1495D01*
X3124Y1494D02*
X3197Y1494D01*
X3124Y1493D02*
X3197Y1493D01*
X3124Y1492D02*
X3197Y1492D01*
X3124Y1491D02*
X3197Y1491D01*
X3124Y1490D02*
X3197Y1490D01*
X3124Y1489D02*
X3197Y1489D01*
X3124Y1488D02*
X3197Y1488D01*
X3124Y1487D02*
X3197Y1487D01*
X3124Y1486D02*
X3197Y1486D01*
X3125Y1485D02*
X3197Y1485D01*
X324Y1458D02*
X397Y1458D01*
X324Y1457D02*
X397Y1457D01*
X324Y1456D02*
X397Y1456D01*
X324Y1455D02*
X397Y1455D01*
X324Y1454D02*
X397Y1454D01*
X324Y1453D02*
X397Y1453D01*
X324Y1452D02*
X397Y1452D01*
X324Y1451D02*
X397Y1451D01*
X324Y1450D02*
X397Y1450D01*
X324Y1449D02*
X397Y1449D01*
X324Y1448D02*
X397Y1448D01*
X324Y1447D02*
X397Y1447D01*
X324Y1446D02*
X397Y1446D01*
X324Y1445D02*
X397Y1445D01*
X324Y1444D02*
X397Y1444D01*
X324Y1443D02*
X397Y1443D01*
X324Y1442D02*
X397Y1442D01*
X324Y1441D02*
X356Y1441D01*
X366Y1441D02*
X397Y1441D01*
X324Y1440D02*
X353Y1440D01*
X369Y1440D02*
X397Y1440D01*
X324Y1439D02*
X351Y1439D01*
X371Y1439D02*
X397Y1439D01*
X324Y1438D02*
X349Y1438D01*
X372Y1438D02*
X397Y1438D01*
X324Y1437D02*
X348Y1437D01*
X374Y1437D02*
X397Y1437D01*
X324Y1436D02*
X347Y1436D01*
X375Y1436D02*
X397Y1436D01*
X324Y1435D02*
X346Y1435D01*
X376Y1435D02*
X397Y1435D01*
X324Y1434D02*
X345Y1434D01*
X377Y1434D02*
X397Y1434D01*
X324Y1433D02*
X344Y1433D01*
X377Y1433D02*
X397Y1433D01*
X324Y1432D02*
X344Y1432D01*
X378Y1432D02*
X397Y1432D01*
X324Y1431D02*
X343Y1431D01*
X379Y1431D02*
X397Y1431D01*
X324Y1430D02*
X342Y1430D01*
X379Y1430D02*
X397Y1430D01*
X324Y1429D02*
X342Y1429D01*
X380Y1429D02*
X397Y1429D01*
X324Y1428D02*
X342Y1428D01*
X380Y1428D02*
X397Y1428D01*
X324Y1427D02*
X341Y1427D01*
X380Y1427D02*
X397Y1427D01*
X324Y1426D02*
X341Y1426D01*
X381Y1426D02*
X397Y1426D01*
X324Y1425D02*
X341Y1425D01*
X381Y1425D02*
X397Y1425D01*
X324Y1424D02*
X341Y1424D01*
X381Y1424D02*
X397Y1424D01*
X324Y1423D02*
X341Y1423D01*
X381Y1423D02*
X397Y1423D01*
X324Y1422D02*
X341Y1422D01*
X381Y1422D02*
X397Y1422D01*
X324Y1421D02*
X341Y1421D01*
X381Y1421D02*
X397Y1421D01*
X324Y1420D02*
X341Y1420D01*
X381Y1420D02*
X397Y1420D01*
X324Y1419D02*
X341Y1419D01*
X381Y1419D02*
X397Y1419D01*
X324Y1418D02*
X341Y1418D01*
X381Y1418D02*
X397Y1418D01*
X324Y1417D02*
X341Y1417D01*
X380Y1417D02*
X397Y1417D01*
X324Y1416D02*
X342Y1416D01*
X380Y1416D02*
X397Y1416D01*
X324Y1415D02*
X342Y1415D01*
X380Y1415D02*
X397Y1415D01*
X324Y1414D02*
X342Y1414D01*
X379Y1414D02*
X397Y1414D01*
X324Y1413D02*
X343Y1413D01*
X379Y1413D02*
X397Y1413D01*
X324Y1412D02*
X343Y1412D01*
X378Y1412D02*
X397Y1412D01*
X324Y1411D02*
X344Y1411D01*
X378Y1411D02*
X397Y1411D01*
X324Y1410D02*
X345Y1410D01*
X377Y1410D02*
X397Y1410D01*
X324Y1409D02*
X345Y1409D01*
X376Y1409D02*
X397Y1409D01*
X324Y1408D02*
X346Y1408D01*
X375Y1408D02*
X397Y1408D01*
X324Y1407D02*
X347Y1407D01*
X374Y1407D02*
X397Y1407D01*
X324Y1406D02*
X349Y1406D01*
X373Y1406D02*
X397Y1406D01*
X324Y1405D02*
X350Y1405D01*
X371Y1405D02*
X397Y1405D01*
X324Y1404D02*
X352Y1404D01*
X370Y1404D02*
X397Y1404D01*
X324Y1403D02*
X355Y1403D01*
X367Y1403D02*
X397Y1403D01*
X324Y1402D02*
X397Y1402D01*
X324Y1401D02*
X397Y1401D01*
X324Y1400D02*
X397Y1400D01*
X324Y1399D02*
X397Y1399D01*
X324Y1398D02*
X397Y1398D01*
X324Y1397D02*
X397Y1397D01*
X324Y1396D02*
X397Y1396D01*
X324Y1395D02*
X397Y1395D01*
X324Y1394D02*
X397Y1394D01*
X324Y1393D02*
X397Y1393D01*
X324Y1392D02*
X397Y1392D01*
X324Y1391D02*
X397Y1391D01*
X324Y1390D02*
X397Y1390D01*
X324Y1389D02*
X397Y1389D01*
X324Y1388D02*
X397Y1388D01*
X324Y1387D02*
X397Y1387D01*
X324Y1386D02*
X397Y1386D01*
X325Y1385D02*
X397Y1385D01*
D02*
G04 End of Copper0*
M02*